<mxfile host="app.diagrams.net" agent="Mozilla/5.0 (Windows NT 10.0; Win64; x64) AppleWebKit/537.36 (KHTML, like Gecko) Chrome/141.0.0.0 Safari/537.36" version="28.2.5">
  <diagram name="Página-1" id="6CAupsV__flEeniP3BK9">
    <mxGraphModel dx="2451" dy="890" grid="1" gridSize="10" guides="1" tooltips="1" connect="1" arrows="1" fold="1" page="1" pageScale="1" pageWidth="1100" pageHeight="850" math="0" shadow="0">
      <root>
        <mxCell id="0" />
        <mxCell id="1" parent="0" />
        <mxCell id="FbaqpglJVMi_n5HGXFX3-2" value="Diagrama &lt;i&gt;Activity on Node&lt;/i&gt; (AoN) - Sistema SPCP - Fase 1" style="text;html=1;align=left;verticalAlign=middle;resizable=0;points=[];autosize=1;strokeColor=none;fillColor=none;" parent="1" vertex="1">
          <mxGeometry x="-1040" y="90" width="340" height="30" as="geometry" />
        </mxCell>
        <mxCell id="FbaqpglJVMi_n5HGXFX3-18" value="" style="edgeStyle=orthogonalEdgeStyle;rounded=0;orthogonalLoop=1;jettySize=auto;html=1;" parent="1" source="FbaqpglJVMi_n5HGXFX3-3" target="FbaqpglJVMi_n5HGXFX3-4" edge="1">
          <mxGeometry relative="1" as="geometry" />
        </mxCell>
        <mxCell id="FbaqpglJVMi_n5HGXFX3-3" value="Inicio&lt;div&gt;03/11/2025&lt;/div&gt;" style="strokeWidth=2;html=1;shape=mxgraph.flowchart.start_2;whiteSpace=wrap;" parent="1" vertex="1">
          <mxGeometry x="-1040" y="120" width="80" height="80" as="geometry" />
        </mxCell>
        <mxCell id="FbaqpglJVMi_n5HGXFX3-4" value="1.1.1&lt;div&gt;Planificación de la fase&lt;div&gt;t=1 d&lt;/div&gt;&lt;/div&gt;" style="rounded=1;whiteSpace=wrap;html=1;absoluteArcSize=1;arcSize=14;strokeWidth=2;align=center;verticalAlign=top;" parent="1" vertex="1">
          <mxGeometry x="-920" y="120" width="120" height="80" as="geometry" />
        </mxCell>
        <mxCell id="FbaqpglJVMi_n5HGXFX3-16" value="" style="edgeStyle=orthogonalEdgeStyle;rounded=0;orthogonalLoop=1;jettySize=auto;html=1;" parent="1" source="FbaqpglJVMi_n5HGXFX3-5" target="FbaqpglJVMi_n5HGXFX3-6" edge="1">
          <mxGeometry relative="1" as="geometry" />
        </mxCell>
        <mxCell id="FbaqpglJVMi_n5HGXFX3-17" value="" style="edgeStyle=orthogonalEdgeStyle;rounded=0;orthogonalLoop=1;jettySize=auto;html=1;" parent="1" source="FbaqpglJVMi_n5HGXFX3-5" target="FbaqpglJVMi_n5HGXFX3-6" edge="1">
          <mxGeometry relative="1" as="geometry" />
        </mxCell>
        <mxCell id="FbaqpglJVMi_n5HGXFX3-5" value="&lt;div&gt;1.1.2&lt;/div&gt;&lt;div&gt;Revisión de objetivos y alcance&lt;div&gt;t=3 d&lt;/div&gt;&lt;/div&gt;" style="rounded=1;whiteSpace=wrap;html=1;absoluteArcSize=1;arcSize=14;strokeWidth=2;align=center;verticalAlign=top;" parent="1" vertex="1">
          <mxGeometry x="-760" y="120" width="120" height="80" as="geometry" />
        </mxCell>
        <mxCell id="FbaqpglJVMi_n5HGXFX3-6" value="1.1.3&lt;div&gt;Preparación de entorno y control de versiones&lt;div&gt;t=3 d&lt;/div&gt;&lt;/div&gt;" style="rounded=1;whiteSpace=wrap;html=1;absoluteArcSize=1;arcSize=14;strokeWidth=2;align=center;verticalAlign=top;" parent="1" vertex="1">
          <mxGeometry x="-600" y="120" width="120" height="80" as="geometry" />
        </mxCell>
        <mxCell id="FbaqpglJVMi_n5HGXFX3-7" value="1.1.4&lt;div&gt;&lt;div&gt;Planificación de pruebas y CA&lt;/div&gt;&lt;div&gt;t=4 d&lt;/div&gt;&lt;/div&gt;" style="rounded=1;whiteSpace=wrap;html=1;absoluteArcSize=1;arcSize=14;strokeWidth=2;align=center;verticalAlign=top;" parent="1" vertex="1">
          <mxGeometry x="-600" y="240" width="120" height="80" as="geometry" />
        </mxCell>
        <mxCell id="FbaqpglJVMi_n5HGXFX3-8" value="QG1" style="strokeWidth=2;html=1;shape=mxgraph.flowchart.decision;whiteSpace=wrap;" parent="1" vertex="1">
          <mxGeometry x="-440" y="200" width="40" height="40" as="geometry" />
        </mxCell>
        <mxCell id="FbaqpglJVMi_n5HGXFX3-10" value="" style="endArrow=classic;html=1;rounded=0;exitX=1;exitY=0.5;exitDx=0;exitDy=0;strokeColor=#FF0000;" parent="1" source="FbaqpglJVMi_n5HGXFX3-4" edge="1">
          <mxGeometry width="50" height="50" relative="1" as="geometry">
            <mxPoint x="-790" y="159.99" as="sourcePoint" />
            <mxPoint x="-760" y="160" as="targetPoint" />
          </mxGeometry>
        </mxCell>
        <mxCell id="FbaqpglJVMi_n5HGXFX3-11" value="" style="endArrow=classic;html=1;rounded=0;" parent="1" edge="1">
          <mxGeometry width="50" height="50" relative="1" as="geometry">
            <mxPoint x="-640" y="159.99" as="sourcePoint" />
            <mxPoint x="-600" y="159.57999999999998" as="targetPoint" />
          </mxGeometry>
        </mxCell>
        <mxCell id="FbaqpglJVMi_n5HGXFX3-12" value="" style="endArrow=classic;html=1;rounded=0;entryX=0;entryY=0.5;entryDx=0;entryDy=0;strokeColor=#FF0000;" parent="1" target="FbaqpglJVMi_n5HGXFX3-7" edge="1">
          <mxGeometry width="50" height="50" relative="1" as="geometry">
            <mxPoint x="-640" y="160" as="sourcePoint" />
            <mxPoint x="-590" y="220" as="targetPoint" />
            <Array as="points">
              <mxPoint x="-620" y="160" />
              <mxPoint x="-620" y="280" />
            </Array>
          </mxGeometry>
        </mxCell>
        <mxCell id="FbaqpglJVMi_n5HGXFX3-13" value="" style="endArrow=classic;html=1;rounded=0;entryX=0;entryY=0.5;entryDx=0;entryDy=0;entryPerimeter=0;" parent="1" target="FbaqpglJVMi_n5HGXFX3-8" edge="1">
          <mxGeometry width="50" height="50" relative="1" as="geometry">
            <mxPoint x="-480" y="160" as="sourcePoint" />
            <mxPoint x="-440" y="280" as="targetPoint" />
            <Array as="points">
              <mxPoint x="-460" y="160" />
              <mxPoint x="-460" y="220" />
            </Array>
          </mxGeometry>
        </mxCell>
        <mxCell id="FbaqpglJVMi_n5HGXFX3-14" value="" style="endArrow=classic;html=1;rounded=0;exitX=1;exitY=0.5;exitDx=0;exitDy=0;entryX=0;entryY=0.5;entryDx=0;entryDy=0;entryPerimeter=0;strokeColor=#FF0000;" parent="1" target="FbaqpglJVMi_n5HGXFX3-8" edge="1">
          <mxGeometry width="50" height="50" relative="1" as="geometry">
            <mxPoint x="-480" y="279.58000000000004" as="sourcePoint" />
            <mxPoint x="-440" y="279.58000000000004" as="targetPoint" />
            <Array as="points">
              <mxPoint x="-460" y="280" />
              <mxPoint x="-460" y="220" />
            </Array>
          </mxGeometry>
        </mxCell>
        <mxCell id="FbaqpglJVMi_n5HGXFX3-15" value="F2" style="verticalLabelPosition=middle;verticalAlign=middle;html=1;shape=mxgraph.flowchart.on-page_reference;labelPosition=center;align=center;" parent="1" vertex="1">
          <mxGeometry x="-360" y="200" width="40" height="40" as="geometry" />
        </mxCell>
        <mxCell id="FbaqpglJVMi_n5HGXFX3-20" value="" style="endArrow=classic;html=1;rounded=0;exitX=1;exitY=0.5;exitDx=0;exitDy=0;entryX=0;entryY=0.5;entryDx=0;entryDy=0;entryPerimeter=0;exitPerimeter=0;" parent="1" source="FbaqpglJVMi_n5HGXFX3-8" target="FbaqpglJVMi_n5HGXFX3-15" edge="1">
          <mxGeometry width="50" height="50" relative="1" as="geometry">
            <mxPoint x="-390" y="224.57999999999998" as="sourcePoint" />
            <mxPoint x="-350" y="224.57999999999998" as="targetPoint" />
          </mxGeometry>
        </mxCell>
        <mxCell id="FbaqpglJVMi_n5HGXFX3-21" value="F2" style="verticalLabelPosition=middle;verticalAlign=middle;html=1;shape=mxgraph.flowchart.on-page_reference;labelPosition=center;align=center;" parent="1" vertex="1">
          <mxGeometry x="-1040" y="420" width="40" height="40" as="geometry" />
        </mxCell>
        <mxCell id="FbaqpglJVMi_n5HGXFX3-22" value="1.2.1&lt;div&gt;Planificación de la fase&lt;div&gt;t=1 d&lt;/div&gt;&lt;/div&gt;" style="rounded=1;whiteSpace=wrap;html=1;absoluteArcSize=1;arcSize=14;strokeWidth=2;align=center;verticalAlign=top;" parent="1" vertex="1">
          <mxGeometry x="-920" y="400" width="120" height="80" as="geometry" />
        </mxCell>
        <mxCell id="FbaqpglJVMi_n5HGXFX3-23" value="1.2.2&lt;div&gt;Modelo de datos unificar (DER)&lt;div&gt;t=8 d&lt;/div&gt;&lt;/div&gt;" style="rounded=1;whiteSpace=wrap;html=1;absoluteArcSize=1;arcSize=14;strokeWidth=2;align=center;verticalAlign=top;" parent="1" vertex="1">
          <mxGeometry x="-760" y="400" width="120" height="80" as="geometry" />
        </mxCell>
        <mxCell id="FbaqpglJVMi_n5HGXFX3-24" value="1.2.3&lt;br&gt;&lt;div&gt;Diseño funcional&lt;div&gt;t=8 d&lt;/div&gt;&lt;/div&gt;" style="rounded=1;whiteSpace=wrap;html=1;absoluteArcSize=1;arcSize=14;strokeWidth=2;align=center;verticalAlign=top;" parent="1" vertex="1">
          <mxGeometry x="-760" y="520" width="120" height="80" as="geometry" />
        </mxCell>
        <mxCell id="FbaqpglJVMi_n5HGXFX3-25" value="1.2.4&lt;br&gt;&lt;div&gt;Prototipo de panel ejecutivo&lt;div&gt;t=8 d&lt;/div&gt;&lt;/div&gt;" style="rounded=1;whiteSpace=wrap;html=1;absoluteArcSize=1;arcSize=14;strokeWidth=2;align=center;verticalAlign=top;" parent="1" vertex="1">
          <mxGeometry x="-600" y="460" width="120" height="80" as="geometry" />
        </mxCell>
        <mxCell id="FbaqpglJVMi_n5HGXFX3-28" value="QG2" style="strokeWidth=2;html=1;shape=mxgraph.flowchart.decision;whiteSpace=wrap;" parent="1" vertex="1">
          <mxGeometry x="-440" y="480" width="40" height="40" as="geometry" />
        </mxCell>
        <mxCell id="FbaqpglJVMi_n5HGXFX3-29" value="F3" style="verticalLabelPosition=middle;verticalAlign=middle;html=1;shape=mxgraph.flowchart.on-page_reference;labelPosition=center;align=center;" parent="1" vertex="1">
          <mxGeometry x="-360" y="480" width="40" height="40" as="geometry" />
        </mxCell>
        <mxCell id="FbaqpglJVMi_n5HGXFX3-30" value="" style="endArrow=classic;html=1;rounded=0;exitX=1;exitY=0.5;exitDx=0;exitDy=0;entryX=0;entryY=0.5;entryDx=0;entryDy=0;entryPerimeter=0;exitPerimeter=0;" parent="1" source="FbaqpglJVMi_n5HGXFX3-28" target="FbaqpglJVMi_n5HGXFX3-29" edge="1">
          <mxGeometry width="50" height="50" relative="1" as="geometry">
            <mxPoint x="-390" y="504.5799999999999" as="sourcePoint" />
            <mxPoint x="-350" y="504.5799999999999" as="targetPoint" />
          </mxGeometry>
        </mxCell>
        <mxCell id="FbaqpglJVMi_n5HGXFX3-32" value="" style="endArrow=classic;html=1;rounded=0;exitX=1;exitY=0.5;exitDx=0;exitDy=0;exitPerimeter=0;entryX=0;entryY=0.5;entryDx=0;entryDy=0;" parent="1" source="FbaqpglJVMi_n5HGXFX3-21" target="FbaqpglJVMi_n5HGXFX3-22" edge="1">
          <mxGeometry width="50" height="50" relative="1" as="geometry">
            <mxPoint x="-990" y="439.5" as="sourcePoint" />
            <mxPoint x="-950" y="439.5" as="targetPoint" />
          </mxGeometry>
        </mxCell>
        <mxCell id="fjiwsdt_9cLcJGBCS1oQ-1" value="Diagrama &lt;i&gt;Activity on Node&lt;/i&gt; (AoN) - Sistema SPCP - Fase 2" style="text;html=1;align=left;verticalAlign=middle;resizable=0;points=[];autosize=1;strokeColor=none;fillColor=none;" vertex="1" parent="1">
          <mxGeometry x="-1040" y="370" width="340" height="30" as="geometry" />
        </mxCell>
        <mxCell id="fjiwsdt_9cLcJGBCS1oQ-2" value="" style="endArrow=classic;html=1;rounded=0;exitX=1;exitY=0.5;exitDx=0;exitDy=0;strokeColor=#000000;" edge="1" parent="1">
          <mxGeometry width="50" height="50" relative="1" as="geometry">
            <mxPoint x="-800" y="439.28999999999996" as="sourcePoint" />
            <mxPoint x="-760" y="439.28999999999996" as="targetPoint" />
          </mxGeometry>
        </mxCell>
        <mxCell id="fjiwsdt_9cLcJGBCS1oQ-3" value="" style="endArrow=classic;html=1;rounded=0;entryX=0;entryY=0.5;entryDx=0;entryDy=0;strokeColor=#FF0000;" edge="1" parent="1">
          <mxGeometry width="50" height="50" relative="1" as="geometry">
            <mxPoint x="-800" y="439" as="sourcePoint" />
            <mxPoint x="-760" y="559" as="targetPoint" />
            <Array as="points">
              <mxPoint x="-780" y="439" />
              <mxPoint x="-780" y="559" />
            </Array>
          </mxGeometry>
        </mxCell>
        <mxCell id="fjiwsdt_9cLcJGBCS1oQ-5" value="" style="endArrow=classic;html=1;rounded=0;entryX=0;entryY=0.5;entryDx=0;entryDy=0;entryPerimeter=0;" edge="1" parent="1">
          <mxGeometry width="50" height="50" relative="1" as="geometry">
            <mxPoint x="-640" y="440" as="sourcePoint" />
            <mxPoint x="-600" y="500" as="targetPoint" />
            <Array as="points">
              <mxPoint x="-620" y="440" />
              <mxPoint x="-620" y="500" />
            </Array>
          </mxGeometry>
        </mxCell>
        <mxCell id="fjiwsdt_9cLcJGBCS1oQ-6" value="" style="endArrow=classic;html=1;rounded=0;exitX=1;exitY=0.5;exitDx=0;exitDy=0;entryX=0;entryY=0.5;entryDx=0;entryDy=0;entryPerimeter=0;strokeColor=#FF0000;" edge="1" parent="1">
          <mxGeometry width="50" height="50" relative="1" as="geometry">
            <mxPoint x="-640" y="559.58" as="sourcePoint" />
            <mxPoint x="-600" y="500" as="targetPoint" />
            <Array as="points">
              <mxPoint x="-620" y="560" />
              <mxPoint x="-620" y="500" />
            </Array>
          </mxGeometry>
        </mxCell>
        <mxCell id="fjiwsdt_9cLcJGBCS1oQ-7" value="" style="endArrow=classic;html=1;rounded=0;exitX=1;exitY=0.5;exitDx=0;exitDy=0;strokeColor=#FF0000;" edge="1" parent="1">
          <mxGeometry width="50" height="50" relative="1" as="geometry">
            <mxPoint x="-480" y="499.5" as="sourcePoint" />
            <mxPoint x="-440" y="499.5" as="targetPoint" />
          </mxGeometry>
        </mxCell>
        <mxCell id="fjiwsdt_9cLcJGBCS1oQ-8" value="" style="shape=image;verticalLabelPosition=bottom;labelBackgroundColor=default;verticalAlign=top;aspect=fixed;imageAspect=0;image=data:image/png,iVBORw0KGgoAAAANSUhEUgAABuwAAAVKCAYAAAACG10DAAAAAXNSR0IArs4c6QAAAARnQU1BAACxjwv8YQUAAAAJcEhZcwAAHYcAAB2HAY/l8WUAANhBSURBVHhe7N15XFV1/sfxNyCB4EWUTRERN9zFuC6ZVlZq42ijLdOiZotNtoxNm1ZT+XM0p8UWS1sns2x3xtLSnMitcikVRyw3lETEBbiKgCCIwO8PFjmHiwIC9154PR+P+3h4Pt9zzr1cFH3ct5/P162oqKhIAAAAAAAAAAAAABzC3VwAAAAAAAAAAAAAUH8I7AAAAAAAAAAAAAAHIrADAAAAAAAAAAAAHIjADgAAAAAAAAAAAHAgAjsAAAAAAAAAAADAgQjsAAAAAAAAAAAAAAcisAMAAAAAAAAAAAAciMAOAAAAAAAAAAAAcCACOwAAAAAAAAAAAMCBCOwAAAAAAAAAAAAAByKwAwAAAAAAAAAAAByIwA4AAAAAAAAAAABwILeioqIicxH1Iy8vTykpKeayXc2bN1fz5s3NZcApJe4/ZC4BqAetWgfJ2/sicxkAAAAAAACAkyOwq0NJSUlKT09Xenq6Dh48qJycHB09elSHDx82n1otoaGhatWqlXx8fNS2bVu1aNFCLVq0UEhIiLy8vMynA3Uucf8hbdzwq/63da8O7LeZlwHUo3btA3VxdGf1uThS3bp3MC8DAAAAAAAAcEIEdrUkKSlJv//+uw4ePKjff//9gkO5mioN87p06aIOHToQ4qFOJe4/pI8X/le/xiWZlwA4gXbtA3XL2KGKtnYzLwEAAAAAAABwIgR2NVQa0O3Zs0dbt241LzuVyMhIde/eXR07dlRkZKR5Gai2Eyey9MH732jjuj3mJQBOqFdUuO6eNFqtWgWalwAAAAAAAAA4AQK7KsrLy9Pu3bu1fft2xcXFKSsry3yKyxg8eLAiIyPVtWtX9sVDtR09atP/PTVfJ9JzzEsAnJh/Cx9Nuv9PdNsBAAAAAAAATojA7hzKh3Tr1q0zL1dLRkaGzpw5Uxb0nThxQnl5eYb1xMTEcldIwcHBat26ddmxl5eX/P39JUkWi0VNmjRRs2bN5OHhUe6q6omMjNTQoUPVtWtXRmfivLbG7tILsz43l8uEtwtWt+7t1aZNK0lSq9ZB5lMA1IGjR9IkSTbbce3Zk6g9uw6aTynz4CPXadDgPuYyAAAAAAAAAAcisLMjNTVVP/30kzZu3FjtTrrs7GydPHlSmZmZOn78uI4cOaLU1FTzabWqNNhr2bKlmjZtqhYtWsjX19d82nkNHz5cvXr1Ymwm7Dp61Ka/3T/XXJYk9bm4ky4f0l/NmvmYlwA4wMmTOdr0S5x+3rDDvCRJevypW+i0AwAAAAAAAJwIgV05cXFxWrlypeLj481LlcrOzlZ6erpsNpsSExPrPJyrjqioKIWEhKhFixbVGn0ZGhqqP/zhD+rTpw9dd5BK9qx7/NE3K4zB9PH10i23/oFOOsBJHT9+Qov//b3SUjMMdf8WPvrHrInsaQcAAAAAAAA4iUYf2OXl5Wnjxo1atmxZlbrpCgoKZLPZZLPZtHfvXqcK6M4lODhYERERat26tQIDA6s0RtNisejqq6/WpZdeWq3ADw3PnFc+1cZ1ewy18HbB+uOoy9WyZfGYVgDO6fTpfC36fIWSDhj/vmrXPlAvvjzZUAMAAAAAAADgGI02sKtOUFca0h05ckSbNm0yL7ukqKgoRUREVDm8Gz58uIYOHUpw1wgl7j+kxx9911Dz8fXShDuuJawDXMTp0/n6cMGSCp12jMYEAAAAAAAAnEOjC+yqE9RlZGQoOTnZpTrpaqJ///5q27atAgICzEsVENw1Pva66+66ezRjMAEXc/z4Cb39xn8MtXbtAzVj1iR5e19kqAMAAAAAAACoX40qsPvll1/073//+5xBXWk3XVxcnBITE83LDVpERIQiIyPVtm3bc3bdWSwWjRo1SgMHDmSPuwbOXnddl25tdcON1xhqAFzD+nWx+mHN/ww1uuwAAAAAAAAAx2sUgV1SUpIWLFigw4cPm5fKFBQU6ODBg9q2bVuD7qariuDgYHXu3FmdOnU6ZyAXGhqqMWPGKCoqyryEBmLpkrX6dOEaQ+3Bh8eqWTMfQw2Aazh9Ol9vzvtcOdl5ZbVhf+iju++5znAeAAAAAAAAgPrVoAO7vLw8LVq0SOvWrTMvlSGoO7dBgwadN7iLjo7WLbfcwpjMBujZf8zXr3FJZcfh7YI1fsKfDOcAcC3fLlurbf/bZ6h98eU/DMcAAAAAAAAA6leDDezi4uL00UcfVTr+kqCueqoS3N16660aMmSIuQwXdvP1/2c4vuLKizVosNVQA+Ba9sbv17+/WGWovfbmZLVqFWioAQAAAAAAAKg/7uaCq8vLy9NHH32kN998s9KwLjk5Wd98841iYmII66po/fr1WrFihRITE1VQUGBeliR99tlnevnll3lPG4jE/YfMJXXsGG4uAXAxFkszc0m5p86OyAQAAAAAAABQ/xpUYBcfH6+nnnqq0hGYGRkZiomJ0bfffkuoVAOpqamKiYnRqlWrdOzYMfOyVPI9ePHFF/XLL7+YlwAATqBV6yBzScePZ5pLAAAAAAAAAOpRgwnsVqxYoZdfftluV11BQYF27NihL774QomJieZlVFNiYqIWL16sX375RXl5FbsysrKy9P777+ujjz6yuw7X1TLA31wC0AAcO5ZhLgEAAAAAAACoRy4f2GVkZOjll1/WkiVLzEuSpGPHjumbb77R+vXrzUu4QHFxcVqxYoWSk5PNS5KkdevW6fnnn6ebsQG56CJPcwkAAAAAAAAAAFwglw7skpKSNHPmTMXHx5uXVFBQoG3btmnx4sUERnUoNTVV3377baXddocPH9aLL76ouLg48xIAAAAAAAAAAABcObCLi4vTrFmz7I7AzMjI0KpVq7Rp0ybzEupIabedvb3tsrKy9Oabb2rFihXmJQAAAAAAAAAAgEbPJQO7FStW6M033zSXpZL91dirzjFSU1O1ePFi7dixw7wkSVqyZIkWL15stxMPAAAAAAAAAACgsXK5wG7x4sV296srHYEZExNjXkI9W79+vX788Ue7wVxMTIzmzZtndw1AHcreoNeGh2vUwu0qMK/VSKFObn5Rw6Jv0oc7s82LAAAAAAAAAIBqcJnALi8vT++8847dQC47O1vr169nBKYT2b17t1asWKHs7Iof5MfHxxPaAfWp8JBWvfx/WmAzL9RcYep3eumpeUozLwAAAAAAAAAAqs0lAru8vDzNmzdPW7duNS8pOztb33//vXbv3m1egoOlpqbqk08+UUpKinmJ0A6oLzkJWjXvcT26ZI95pYYKlXNgheY+9YyW1GIACAAAAAAAAACNmdMHdqVhXXx8vHlJKSkp+uSTT5SammpeghNZunSpkpOTzWVCO6BOFQdrr/3tZj36wY/mxRrK0oHVL+nB6yZpQSw/dwEAAAAAAACgtjh1YHe+sG7p0qXmMpzUt99+qx07dpjLhHZAXSg8qk3zJujS6yZpQazU96639PLkS8xnVUuh7SfN/cuVGv3YPG3R5Zr4xlt6MMx8FgAAAAAAAACgJpw6sCOsa1jWr19PaAfUh6JU7Yr5UbLepxkff6t3/zpErT3MJ1VPUepOfRcr9b1jjj6NWaDJ/dvqAm8JAAAAAAAAACjhtIHd4sWL7YZ1O3bsIKxzYYR2QD1wa6V+U5Zp5TtP6k/dg2vlB71b8EBN/fhbvfvg9eoe6GleBgAAAAAAAABcgNr4HLfWLV68WDExMeaykpOTtX79enMZLuZcod2iRYvMZQDV5R6s7pf1VmAt/oR3D+yty2sp/AMAAAAAAAAAGDndZ69xcXF2w7qUlBR9++235jJcVGWh3bp167R48WJzGQAAAAAAAAAAoMFyqsAuPj5eb775prnMnnUN1Pr167V3715zWTExMYqLizOXAQAAAAAAAAAAGiSnCexSU1P17rvvmsvKyMggrGvA1qxZo5SUFHNZb775ppKSksxlAAAAAAAAAACABscpAru8vDx99NFHysrKMtSzs7O1Zs0aQw0Nz9KlS3Xs2DFzWa+//rry8vLMZQAAAAAAAAAAgAbFKQK7ZcuWKT4+3lArKCjQ+vXrlZqaaqijYfrpp5+UnZ1tqGVlZWnevHmGGgAAAAAAAAAAQEPj8MAuLi5OMTEx5rK2bNmixMREcxkNVGpqqmJjY1VQUGCox8fHa+3atYYaAAAAAAAAAABAQ+LQwC4jI0MfffSRuay9e/cqLi7OXEYDt3v3bv3666/msj777DP2swMAAAAAAAAAAA2WQwO7zz//vMK+dceOHWPfukZs06ZNSk5ONpe1YMEC9rMDAAAAAAAAAAANksMCu7Vr12rr1q2GWkFBgX766SdDDY3Pt99+W2E/u8OHD2v16tWGGoDalK2dC29Sn+hw9Zm2QjbzMgAAAAAAAACgzjgksMvIyNCyZcvMZW3ZskWpqanmMhohe/vZLVmyhNGYAAAAAAAAAACgwXFIYGdvFGZycjL71qHM7t279fvvv5vLjMYEasRX3Scs0ratSVo2obc8zMuS4ZxtM0Yo0Lxs5tFbt3+dpG1bF+n27r7mVQAAAAAAAABANdR7YBcXF1dhFGZeXp62bNliqAFr1qxRRkaGoXb48GFt3LjRUAMAAAAAAAAAAHBl9RrY5eXl6aOPPjKXtW3bNkZhwq5ffvnFXNJnn31WIcgDAAAAAAAAAABwVfUa2G3cuLHCKMxjx44xChOVSkxMVGJiormsr7/+2lwCAAAAAAAAAABwSfUW2GVkZOizzz4z1AoKCvTTTz8ZaoBZTExMhX3r1q1bp6SkJEMNAAAAAAAAAADAFdVbYLdy5UpzSQcPHmQUJqpk165d5pJWrFhhLgEAAAAAAAAAALicegnsMjIyFBMTY6jl5eVVqAGV2bRpU4V967Zu3UqXHQAAAAAAAAAAcHn1EtjZ667bt2+fuQSc0+7du80luuwAAAAAAAAAAIDLq/PArrLuuvXr1xtqwPnExcUpJSXFUKPLDgAAAAAAAAAAuLo6D+zorkNtiouLM5fosgMAAAAAAAAAAC6tTgM7uutQ2xITE+myAwAAAAAAAAAADUqdBnb/+9//zCW663DBEhMTzSVt3rzZXIKrKNiuD/8Urj7R534Mm/aOvl+7XbZC8w1Qq8q+H09qla3AvFpOpnYuvKP4+/OX97Qzp76+MdnaufAm9YkO16iF23WuV1g1pfe7TE+vPmxerIbauo9q+V4AAAAAAAAAXEGdBnbLli0zHNNdh9oQFxenjIwMQy0mJqZCDQ1L2rJZmvLIKA2dNEebbPnmZdSzwtT1WvTxasn6iN597nZ196nTv04AAAAAAAAAoEGrs09Y4+LilJWVZagxthC1Zf/+/eaS3Y5OuJJxejlmv7ZtTbLzSNDKj+foTmuwFPuKnnpzpVLrq6GrsfHordu/TtK2rc/p6kAP82qJ49ry+TwtafeI3n3uAfUP9DSf4EJ81X3CIm3b+pOevSrUvFgNtXUfAAAAAAAAAI1RnQV2P//8s+G4oKBAO3bsMNSAmtq0aZPy8vIMtR9++MFwjIbEU4Hdr9fkWTM1JlBKW/K1Nhw0fv9Rn1qq/4PLte1fD7l4WAcAAAAAAAAAzqFOAruMjAxt3brVULPZbEpNTTXUgAth7tg8fPiw4uPjDTU0LO7BUbrsknaSknQgNdu8DAAAAAAAAACAS6qTwG7Dhg3mkvbs2WMuARfE3ljMX3/91VxCg9JcrTu1lpSptKzc4pJthZ6ODlefaStky0nQqtfHq090uPpE99XdC7cpp+zaQuUc+FnfL3xYw6LDz57z+mdauzNVFSZslt73T+9oZ0G+bDtX6MNpw8pd94U2HTCO/T2r+LlWLXlOd5c917mer0C21U+qT/Rlenr1IeUcWKHX/tK35Jo79OHOzBret5S9r32Ynl74TcWvoWC7PvxTuPpEP6lVtgLjmt3nP8dzl76H0U9qle2U6T0MV5+/PKcla7fLVuHCmih9D0t+LxSmaufqd/T08PO9zmztXHhTyXt/2LBSLEsHNn9jfN3DH9aHK3/WgZzydzrXfey9b+d6TQAAAAAAAAAamzoJ7DZt2mQ4zsvL0+7duw014EIlJibq2LFjhlpMTEyFUZloSDJ0ZN8RSX4Ksngblwr2aPlL9+rRD34sK3n6WVR8Vr5sm1/Xg9fdpClzFiut7IxUbfngcT00fpymfbKlkuDolI5sekNPjJ+kV5eV/seDVG35YIruue4+zd181BS25Ct19TSNvu4mPTrjLW0xrJ19vhmrD9kNaQoOfKkX/zJJC2JLO5Kbqrmv1wXcN0uJSx7X6Apf+x4tm/NAJV+DPWffQ+Pzlz73H3XPvJ8qeQ8Patunj+tWw3soKfYtTX/kLj3xcflgtRYcWa9Ppo/T2MdmaZmttFj6Oqfqo7IA9Dxy9mjJtOs1etIDxtdtW6xXp96k0X97XZts+eWvsKOm3zcAAAAAAAAAjUmtB3apqak6fNjYXWAeXQjUlqNHj5pLhMMNVqFydn6rz5YdkAKv0MDu/sblFa/o1XU99djCLdq6NUnb1i3VE4PD5a5C5ez8UE9MekVbdLnunPa5lq5L1LatSdq2dYeWvjNbd1rTtezlJzVvrZ3QJPkVPfrAx9Idc/RpTELxdevW6OU7Lpf0o+ZP+oe+PnA2JC488KX+77GFStPluvMfX2vllqSS50rUhq8+0sOjukjaoyXPf6It2eZnO6AVc2dr/SUz9XFMQvE1S5/Q4LZeNbxvoXJ2fqFnZ3yhNAWr7x3vnP3ay38NT83TmtRzBU/l38MuGvXQO2ffiy1b9Ok/7lNfpWrL+zPsv4f6UR99sEsDHvrIzvOnasucdxRT7j28YLELteDnnnr4rbXaUPYevaM7rcGSVuvVN1boQMUXaZKpnf95TtOX7ZF0ue58aU3Fe8W+oqfeXKnUc9yrZt83AAAAAAAAAI1NrQd2sbGx5pLd0YVAbVi/fr0KCoxj+7Zv3244RgNQmKqdq/+lfz40Q1sUrL7jh6unr/nHV7AG3v9Xje0ZXPyDzaeN2gV6SoX7FfPG29qiLhrz0guaPOZStfMpvdaidv1u1uRZMzUmcI+WfLZCuw1jDosFjZmpf/71enUP9Cwu+HTU1X99QS+P6SJpud5YGquTkqQ8HfzfWm2UFHTH/Zp4bR8Flr1Md/m0u0K3TbxbAyXJlq6sU0Wli+WM1AMTb1HPQM/ia9q2U6B7Te97Qr+t/Epbyr6GEWe/dp+Ouvrux/SwNViy/Vf/2ZBkJ2grVXqfYPV9aLb+PmHE2ffCPVjdr31M/3xpgoIqDZ5Kr7vC+PwT79edgZL0m7YkGLtlL8xVenjOP3T7gA7ykUreo2s08Z6bFCRJG7dp33HzuE+T7N/0/cerpdLfN1d1NNzrLw/fq76S0pZ8rQ0HKwsba/p9AwAAAAAAANDYmD/xvmDmcZjZ2dlKTEw01IDaZLOVzbyTJK1bt85wDFfxiR4d3r7c/l7lHn37lo03DBr1hJ6+sXdJeFJeiLq2aVHxh9rxeG3ZmCqF3aibrmhTcV2Se3CULruknRQbo82Jp0yrI/XA7Vcp2HyhextdeXtx2JK28lclFUiSl9qNeUvbtibp+wcvVTPTJZLk7uunAHOxvMD2Ci0Nw8rU8L7Zu7Vx2a+SemnUiAEVvwafPrr9X1u0besWvTWmo933Rip/n34adUU3O++9p4KH3KkHBgZLth+0cecJ03oHXda3c8XrfCPU85J25uqFCxuofl38TEV3NWvfSwNMVfsKdXLnuuJxmoHD9McBrU3vjbt8ut+t97YmadvWtzSmnZdh9awaft8AAAAAAAAANDqVfj5bExkZGRXGYZqPXZOXAjr2ktVqldXaSx0DKvtwtqqC1LF3tKxWq6K7hanmd6ut+7i2I0eOmEuKj483l+DSumjUQ3P18jtrtXTGjYoo65ArL1ztgn3NRRWkJmmbJCXP0th+dsLA6HD1ib5Ejy47IOmI9h7NMN7AboBWzD2wrboGSkpO1JF0+x1bhbbtWrt6hVatXqFVS57T3cMnaZn5pPI6t1NIU3tfn1FV7ltoO6jdNknqrZ7tm5tWq67sPmF9FBlWyU8a9xYK7RIiKVNpWbmmxY4KCzbtOViX+oQr2MNcrI58HTu0v3i/v0t6qUOFbs6aq8r3DQAAAAAAAEDjU3ufQlayd5i9MAWoTfY6OBMSEswlOL1xejlmf8n+XubH93p2wmhd3a90xKE9/rL4NjEXL5x3czXzruRHpXcz+VfIofJl27lCH04bpj7R4YoePkoPPTZJjz42SY/OeEtbzKebBfjJfj5U/fsWZZ/QQXOxBqp2Hy81868YmLqmM8rOrK0RndX/vgEAAAAAAABofOx+LFxT5q6mvLw8uyEe0pSwfatiY2O1dVeyKtv96Pxq6z6uLTU1VRkZxq4o82hWQANna+kWcxBofvykZ68KNV9ZudyTOmFoJitUzs4P9cT4SXp12Z7ivdvueEEvv/RO8eOdtdoQ845Glb+kSmp2Xzdff7U11WqiavfJ08kT2eaii2oiX7/aGFRZs+8bAAAAAAAAgManVgO7uLg4w/GJE+Z9jIC6kZqaajg+fPhwhRAPjVNZ2LT3gFJOFZqXzy95m+KT7cfhZ0dFRqh1Cw+pcL9i3nhbW9RFo6Z9rw1bt+i9B2/V1VeNKH706yDv7ExVu3erhvctG9mp7fptv70/D3k6sOS+4rGgD3yhA5W8PWdHf1b+XqgwXYf3pEhqrc6taj5+0zl4KqBNewVJ0s+/6vdsO29MYYKWPNBXfaL76r4lCbJzRo2/bwAAAAAAAAAan1oL7FJTU5WVlWWo2Ww2wzFQV+yNXrU3KhONj3vbvrpmYLBkW6R3F29XjvkESYWpKzR9eLj6RN+nJQfMgdRmLfthV8XrCg9pzYfvaaOC1ffGAYrwkFSUrYyDqZI6qe/FERXHdxYe1ZZvvtFGSVKCklPNe71Voqb39e2qgaN6SfpVy1b8olRzqlSYrP99v1lSsAYO66u2lf2NUHafSt4L5St17QK9sTFVCuyrbu2amk9wMe5q1n2wRgVKsn2vb385UiGQKzy4Rd9tTJXUT9dcHGb/L9Oaft8AAAAAAAAANDp2P2Osif3795tLOnTokLnUwFgU1u1iWa1WWaO7Kax5K7WL7KGLrdbimtUqa+9u6tiulSyG64LUsXe0rFaroruFycuwJskzQGEdItXj4nL3sfZRj8gOCgso/0H4ee5jaaV2Hc33iVbvbp3UrpWf+WyXtnv3bhUUFBhqhw8fNhyjkXJvr+EP3Ku+StWWOVP0z4UrtNOWX7JYvL/YR/Ne0RKbFDTmT7q0rflPUul1P+hATnFsU2jbpq/nPa5Hl+yRAv+gW//QoziMcfNV87bBxcHW0uXlnqdQOQc2aMm8x3TP+z+Wv3nV1Pi+/uo59Dr1lZS25BW9/vHZr0E5CVo17/80fWOqFPgH3Xhp+Dn+Qii9j533sDBVO795SX9/bKHSFKyB99+gvvY34XMtvj01bPxVkvZoyfMv6aNffi8JKguVc2CF5j47WxtV2e+ZEjX+vgEAAAAAAABobGrtU1V7+9c1qg4nN28FdWijQIu38U319JF/YKjadwySZ/l6JTwDItSjZ4RCWljkbbiRh7wtLRQS0VmR5w3bPGVp1VE9OrVRoL/5Pm7y9GmuwDad1Dsy1BQkuraTJ08ajnfu3Gk4RmPlLp/uN+vpaTcrSHu0bM4kjR3esXgMZHRHDS3ZXyxo1Cv612PXKLjCT8XLddsd3fTLnNs0enCE+kSHK3r4nzTtgx+lwBv02CsP6srgkj/d5cPBDx4q9zwRuvS6WzR9WZAe+/ATTRsYLClbJ7LN3XyVqPF9i7/2Z176q/pqj5aV+xr6DL5Sj37wo6TLNXHWX89+DXa5y6f77Xr+nUdK7lPuPezbV2P/7y1tUbD63vWqZv6pY+39xeJQfup+4zN6+Y7LJdtivXrfEF1a9p5P0oLYVMn6iGbdP9TO75kSNf6+AQAAAAAAAGhsKvuYsdp+//13w3Hj27/OXe7uBcrNTFHi9ljFxu5UYspJFfdTuMnTP1ihfuf6QFySZ5DC27QsCdiKlJ+dZudenrK0DlWY5Rz3soQorLV/yX3Kv6btij90TDn5RcWvydKqykGiK0hPTzccm0NkNGYWRYx5QUu/WqTZD91QvDdZKet9mv7KMn02/UZF+Nj7kdhWfcbO0HvvzNad1uCS2uW6c9oCffrpixrfM7jcD9KSYOvjBZp+x+VlVcP5vfrLOqxf8ZjKjbtljJkrcyH3tajdVY/p9QpfexeNeugNvfvVW5rcr1UV/jLwVGC/B+3cJ1h973hBcz7+Vu/+9TIFnv9GrsOno65+8C0tfecNPTyqy9l64A16+MVFWvrag+ofeK6foBfyfQMAAAAAAADQmLgVFRUVmYvVlZeXpwcffNBQ27t3r9asWWOouS4vBXSMVIT/RZJO60RivBKO5ZWMxOykEB/34oDtxEHtSkgrCdYkyUetIjurjaVJ8Qi0lH3alZxVMsqyrfw93VSUk6Idu5KVJ8mzVaR6tLHIQ1JhTor27UrW2V0BmyqwYye1879IUqFybYnacaCJnfuUf84C5aTs167kjLK7SJIsYerWKUQ+7pIKsnRoR7yOnn3RLisqKkoDBgww1J566imFh4cbaqiaxP2H9Pij7xpqf3/mbsNxg2ZboaeHT9IyjdPLMc/q6kAP8xmAy/rnzPcMx3ffO0LDhl9iqAEAAAAAAACoP7XSC5GSkmIu6fjx4+ZSA5ev7BOZ5cI6ScpRes5pVS0R9VGAX1MVRwJnlJ1+vFxYJ0mnZEv4VbGxsYqN/Z92HDB2k53lK1/vkmChIEfpKaawTpKyUnToeG7xrz2ayi/Ax3yGSzpy5Ii5ZLcGAAAAAAAAAADgTGolsLMXisTFxZlLDVvRGeWdvJD9h7zk5Vny7Sg6rZz0HPMJVePlpYuauEmSivJylG63cy5fp/LyVSAV743n62s+wSWlpqaqoKD4qyrV+IJjAAAAAAAAAADgamolsDOHInl5FxJcNVZN1MSjOGirD/n5BSo0FxuAkyeNO0AlJSUZjgEAAAAAAAAAAJxNrQR25lAkN7dk3CKq4YzOFFRteGZt8PT0KPnmF6ngzBnzssvKyjIOEj169KjhGAAAAAAAAAAAwNnUSmBn7moyhyaoijzl5Zf0vLldJJ8WdvaV82unHlarrFarrD3ayc+8Lkl5eTp9pjj4c/PyUQtP8wmS5KmmXp4l++UVKr8BdUSeMYWPhw8fNhwDVRY4Qs9uTdK2rc/p6sCSfSEBAAAAAAAAAKgDtRLYxcfHG47NoQmqIkfHMk+V7CvXRL4tWspiWPeUX4tm8pYkFSr3ZKYyDeulspWdW7KPm4ePAkIDVSGzs4SoTcviO6kwTznZdje6c0kpKSnmkjIyMswlAAAAAAAAAAAAp3HBgZ29/epOnDhhLqEK8o+lKyu/uDvO3SdQ4Z3DFOApSU0VENZBEYGlIdspZRw3djWelaOjR44pp1CSPOQdGKbIsvt4ytIqQt3aB8vHXZKKlJ95TClZDSews6exBnanTp2qsL8kAAAAAAAAAABwPhcc2NnraLIX4qEK8tOUdMim7Pyi4rDNL0QRva2yWrsrIqRZSadcvrKOHFbyuUK2rBQlHzmh3NLQruw+vRXZJkA+nm7FYV3WUe1PSNM57uRy4uLizKVGq2nTprrrrrs0b948gjsAAAAAAAAAAJzYBQd29jTWjqbakH8sSbt3HVBKelZJ4FaqQLlZ6UpJ3Kv4o/aHYZ6Vr6yjCdqx75BsJ8z3KVJ+ToZsh/Zpe/xhNYbdBn///XdzqdGYMmWKJk+erICAAII7AAAAAAAAAACclFtRUVHxDMYaSkpK0qxZswy1d99913AM1Kd77rnHcHzrrbdqyJAhhlpjMmbMGC1durTseO7cuRo7dqxatmxpOM8scf8hPf6o8c/y35+523AMwDX9c+Z7huO77x2hYcMvMdQAAAAAAAAA1J8L7rBrzN1LcE50eBpNmTLFcEzHHQAAAAAAAAAAzuWCAzsAzm3QoEEaPXq0uUxwBwAAAAAAAACAkyCwQ4O3Z88ec6nRMXfZlUdwV5+ydPCATYZtJS9Ylg5sXqElr49Xn+jwkkdf3f36Z1q7M7WWnwsAAAAAAAAAUBdqPbBjHCHgfCrrsiuP4K4uFSrnwA/6cNr1uu+Hw7qgjUPLKzyqTfPu0+hJkzT9gx/LLaRqyweP66Hxf9Q9836SjdQOAAAAAAAAAJxarQd2AJzTubrsyisN7j77bJF5CTV2Sok/vKFXl9Vmt2e+UtfO01Pv/ygF3qCHX1qmlVuStG1rkrZt2aJP/3Gf+ipVW96foXlrD9FpBwAAAAAAAABOjMAODd6aNWvk5ubW6B+DBw82vzXntPDD/5hLcCaFSdqw+L9KUy/dOesZ3X5VbwWW/kR3D1b3ax/RM9NGStqjJYvX6SCJHQAAAAAAAAA4LQI7AHBBhQe36LuNqVLgFRrY3d+8LMlLbS8eooGStHGb9h0vMJ8AAAAAAAAAAHAStR7YNWnSxFwCgMbLtkJPR3fT2Dk/S5KS54ySNTpcfaatkE3Z2rnwJvWJDq/i40mtshUHb+7tbtZbW5O0LWaq+vva/1Hu7uunAHPxPApt27V25Tt6enj55x2v15as0KYDWebTSxQq58DP+n7hwxpWdk1f3f36Z1q7M7XiOE7bCj1d9vXkK+fABi15fXy5677UTlt+ya1TtXN1+dczXq8t2aADORXuCgAAAAAAAAAuy/6nvBfA19fXXAIcauTIkSoqKmr0j7lz55rfmkpNmTJFb70z21yGSynUyf2/6hdJGthHnVp6mE+ooDB1hWaMHaWHps7SMlv5lR+1YMYk3XPdZH24M7P8gqR82Ta/rgevu0lT5ixWWlk9VVs+eFwPjR+naZ9skc1uvpat5HWv6sHrbtH0D34sqaVqywcPaezYf2jV0SRtevMRjX2s/Ov5UQtm3KK7X/pOqXbvCQAAAAAAAACup9YDO8DZtG3b1lxqdI4fP67JkyebyxVMmTJFe/bs0YsvvqiIdu3My6iJwBF6dusuffrQJZKksIeWKXZrkrbNGKFA+ar7hEXatjWpio/ndHXg+YM3SVLhEf2y4nulKVgDh/VV2/P+tD+uLZ/P0xKbFDRqpj6OSTj7vOvW6OU7Lpe0Wq9+vl5ns7xC5ez8UE9MekVbdLnunPa5lq5LLLluh5a+M1t3WtO17OUnNW/toYqddlqiV2d8r1aPfqmVW5K0bWuiNnz1ju60Bku2/+qjZx7SU3E9NOPjLdpaes+X/qq+ktKWzNNnscfNNwQAAAAAAAAAl3Tej3DPp2nTpuYS4FCMZa3o008/NZcMygd1kZGR5mW4nHylrn1Lzy/ZI1nv1eTh7c//w74gWbtW/iqpl0Zde616BnqeXfPpqKsf/Lg4iJsxQoGl9cL9innjbW1RF4156QVNHnOp2vmUPpNF7frdrMmzZmpM4B4t+WyFdlcYYxmsvg/N1t/H9VWguyS5y6fdVRozsp+kVG2L9dP4hx/Qn7oHl7x+i9pdNV63jmonKVNpWbmm+wEAAAAAAACAazrvZ7jn07p1a3MJcCjGshqdq7uOoK4hypdt8xv6+2MLlRZ4s6Y/dbO6l4Vo5+ARpm5De0n6VQvefUdL1m6vZIxlOcfjtWVjqhR2o266oo3dv1Dcg6N02SXtpNgYbU48ZVrtoMv6dpaPoeapgDbtFSRJYQPVr4ufYVVqrtadWks6pWOZp+x07QEAAAAAAACA67H3+eoFi4qKMpdqgacsrdqpY7feslqtZx8X91Bkx3ZqZSnXDWLiGRBW4bqLe0SqY7tWsphPNvCUX7seslqt6hPZSpU9g2erSPWxWmXt3VEB5kU7qnW+Xzv1sFpl7ROpVmUvoKkCwtpX+Jqs1t7qds73wk+t2nVSt97R1XsvPAMU1qHiddbe3c5xXQu163Gx6fWZHxerW5j9q2tTY+8CtdddR1DXUBWHdaUjKifOelR/iqjqnzF/9Rx6nfpKUuxbmv7IKA3tG64+wx/WhytjtOlAlvkCFaQmaZskJc/S2H7h6hNt73GJHl12QNIR7T2aYbpDR4UFe5tq7mrq21xektQnXMGVTgBN1cHMbBWZywAAAAAAAADggi44sPP2Nn/YWhc8ZQnrqE5tAuXvYwqj3L1l8Q9Um06d1S7AHMx4ytKqs7pFhFS4zt3bIv/ANurUI0IBleVbaqYWzS6SVKj8vDzlm5clyRKmTq0tqvQzZbNqne8pvxbN5C1J+XnKyVdx6BbZWREhLSt8TZKnfPwD1SaymyJbVexKCevWQW0Cm8vH082wcs73whKqyG7tFNKi4nXy9JF/YBtF9u5cMST09JKX5wX/9qq2iIgIc6lRd4Gau+sI6pxNtnYuvMlOyFXZ40mtshWYb1LCFNa985Ie6NeqGj/k3eXT/S69/tXnmn7H5WfLtsV6derduue6Huoz/GF9/FsqXW0AAAAAAAAAUMuq/lluJYKDg80lNWvWzFy6MJYQhQX5Fr/YwlxlpiRqe2ysYrcnKiUzt/jDY/emahkcYOz28gtVeBu/4s64/GwdO7RXsbGxio0/pGPF6ZfcvVuqTXiQ/e45Pz8183aXdFon00+aV+UZEK6u7YNVlWlzqsH55QPD3JOZypSnLGGhal0SjhXmZslW+jXF7tWhY9kloaKnLK1DFVYWonnKEtZaQT7FMWFhbqZSEncqNjZW2xNTlJlbHAC4e/srOKR5yTUqDvnCgmXxdJNUoNwsmw7Fb6/wHsrTT63DQkzvva+8PSSpUDkp8SWv0fz4n3YlV+zauRDNm5d//SjtriOoa+ByftfPC6fq1kmvaEvgzZr+5VuaXK2wrpS7fNpdqjEPfqxtW3do6Tvv6eUXn9Ko0k3rbIv10oSp+mhnpvGygbO1dEtS8R53lT5+0rNXhRqvAwAAAAAAAABItRHY2VO7e4h5yq9l85KQ64yyjuzX3uRjxcFU/jEl701WWk5J4OTTXC39SkMqH7Vq5V/cnabTOnH4gBKPlnzInHVUifuO6ER+kSQ3eVpaVOwsk+Tp41Uc5OWeVHpm+f66pgoI66JuEUHyNXed2VXd80uUdamVBobN1LJ50+JvWkGWjsTH60Dp16RMHU1MUKItt/jQvamatywNTs3X7VXyseK9pPKPJWtvkk05hZLkIZ/m/irrzfPzV/OSkK8g66ji4w/oaFbJ+5B1VIm7DsqWW9xrY3zvJa+mF6mJJOm0cjJLXlM98PLyMpcUEhJiLjUKx48fV1JSEkGdU/NV9wmL7IRblT2e09WBxv7cQtsWffz8JN07Z7HSrH/Vy/+apjFVHoN5Lha16zdcVw+dpGdjkrQ15hNNtAZLWq1/b0lUgSQ3X3+1laS9B5Ryir47AAAAAAAAAKipWgnsoqOjDce1u2eYt/x8Lir+ZcEpZR7LMa1nKCU9R8WRXRN5lY6J9PSTn09xZKTcTKXZigOqMvm5yssv2f3I3UNNKrwTPgrwayoPFSk/N0dl/SSWUEX27qaIkGYlnXt5yjvX59TVPb8czwA/+XgUv9aTmfnlOv6kgpxMHaswozNfmeknVRyPucvLx7d4HygvX/l4neO6rONKzz5T/GtPLxW/heXGceqMcjIz7YwEPan0k6dLfn2RfPxKx6P6qIXPRXKTpIJ85Z2qeGVd8ff3N5fshniNQcuWLQnqGrhC209648l79dKyPQoaNVMfP/ewrm5Xw7DOtkJPR4erT/R9WnIgz7wq98AeGtDLGH67t+2rawYGS7ZFenfxdpl/OktSYeoKTR9e+X0BAAAAAAAAALUU2Pn4+BiOa3dfO295lXSlFeXlKN1O9pOfnqO8IklqIh+/0hGYRxW/rWT04o4DZwO3Up5n76u8HGWaP0cuC/wKlJudfbZ+UVN5e7pJylfOsUOK356iUwUlwZ891T2/TGlgKBXkZhe//swD2lEyTnJb/FE7AZqkvAIVmm/fzEvFX2qh8nJKx2aWl6P0nNMqkiSPpvIL8CkO/w7sKBldGaf4o/Y+is9XXkFh8XUGZ/evq+x7VlfMYTFhFZxDE/n6BUiS8hIP6VgVQ/tzKjykNW/O0PzYVMk6Ta89cZt6BtppFa6qwAH60x29JC3X9Gdf0dc7y+9Vl6UDq9/Tux/8Kukq/blvRPE+nO7tNfyBe9VXqdoyZ4r+uXCFdtpK/8Dny7ZzhT6a94qW2KSgMX/SpW0bZ3gOAAAAAAAAAOdTK4Fd27ZtDce1uo+Yl5cuauImqUhnTufJnKtJkvLydPpMcWzk7tHkPF+Upyyt2ikyso38Pd2Kx2WmpFYI9Mq628xdfaezlXHCpkPxu7Qr8ajOuwNbdc8vVRYYVtbdZp9nCx95lQvn8gzjKc/o9KnSjjijvFOnVdxj5y6PJsaRe5Ur10lXfvRl2SjPQp0uuEhh3XrLarWWPS7uEakOYQH29w28QOaw2N4ei0D981RAm/YKkpS2ZJKG9w1Xn2krZDOfVmWFytm9Qp8t2VN8GDtDYwdHqE90eCWPm/ThznL/8cCuluo79onisZexb2na+L6KLru+h0Y/Nk9b1EWjpj2pP3cvHZzrLp/uN+vpaTcrSHu0bM4kjR3eseSajho6fpJeXbZHQaNe0b8eu0bB5/7hDAAAAAAAAACNVq18fNqiRQtzSREREeZSzXh5yL0a2765eXqpdOc2Iy8FdOwlq7W3ItsEyuLtocLcTKUk7lOCeVymPNXUy7O4u808QjLrqA4klNvL7Xyqe36ppl7ytBcYnlNzhbTwKe58Kdv3zlNeHu4loVpVuMnTq4odkpaWauFbOna03D5/fr7yLm6/kZelhfxLx5SWcPe2qEVIO3WLDFUNh/dVyhwWm8NkwDHc1cx6h177x33qW1ralqTU4lm+NZCvtPhYbTGXL5B74GWa/NoivfvSC7rTWj7s7qJRD83VnI8/0YwxXWTsqbYoYswLWvrVIs1+6AYFlV+y3qfpryzTZ9NvVETxRqQAAAAAAAAAADvcioqKKk40rKbU1FQ988wzhtq2bdu0adMmQ61GAjqqd4S/PFWk/BMHtT0hzXyGpCB17N22uGMu/4QStyfomPkUWRTWrZNCzB8aF+bqxJGDSjhavseuhdr1iFCgt5STsk+7ks/VF1eV5y6vKud7yq9dpDoHeqsoJ0U7diXb7yw08JQlrKM6hfjKveS92pWQpnx5KaBjpCL8LyruJkyMV8IxO3er0vtcXnOFdWuvEB+P4vseKA0+z752SSrMzVTa0WQlHysJRT0DFBbRSkF+3qbXeeG6du2qyy+/3FB79NFHGYtZQ4n7D+nxR9811P7+zN2GYwCu6Z8z3zMc333vCA0bfomhBgAAAAAAAKD+1ErLg72xg/7+/uaSg2Upedf/SvZki9X2xDRl5xdJ7t7yb9NOHQPL7X3m56dm3u7GMY/1qplaNLvIMNby3DxlaRWh9iG+cpdUmHtch5JqJwSzz0+tItuVhHUFyrUdUVJZl2L5ve9i9b8de8+GdZKUf0zJe5OVllNQ3M1naaGAWpqNGRBQvEdYeSEhIeYSAAAAAAAAAACAU6mVwE6SoqOjDcf2xmTWSP4Z1Xhq3DnkH0vS7sRjKo7jLpJ/SLBKd2Xy8vORl0xjHuuTl698vIoDw+KxludSEta18SveEy4/U0eSDpUb41mo/DOFhisujJ9aRUaojcVTUpHys1KVdMBWzXAwR5k5JVd4NJVfgHHAXk2Zx2FaLJYKNQAAAAAAAAAAAGdTa4FdeHi44bhZM/s7yVVbXoEKqzG0syg/T+eLuMpkZupkbkmY5eml4q3WfNTC5yK5qVC5JzNVflBmffFs4SMvt6oEhhXDukP7E0375eUrr6BQVX8Li5SfV1lXoTmsO6r98Yd1roGh9pV/Te7yaFK8696FMofEnTt3NhwDAAAAAAAAAAA4o1oL7EJDQw3HHh4e6tq1q6FWI3l5On2mSJKbmlzkVdz5ZublpYuauEmSCgvOqOr9ZGdUUHqyu4eauEvy9JOfT5PizrS88w+jrH0+CvBrKg9JBfl5KjdM0sgzQGGdI9WpJKwrzD2mxF17TWFdsbxTp3VGktREFzW9yLwsSfJqepGaSJIKVXCmYk+jZ0CYOvfoUBLWFSjXlqRdNQrr6kZwcLB8fX0NtS5duhiOAQAAAAAAAAAAnFGtBXYRERHmklq3bm0u1UCu8vKLe7HcvHzUwt5+Z8285OmmspAtX5L82qmH1Sqr1ao+ka2KO9Aq8JZX8YXSmdM6lSd5BvipeGu2U8o8lmO+oO6VBYZnlJOZaX/UpKWVOka2VYift9xVpPzsNCXFJ5Ybg2lyMk/Fb6G7vHx87bwXXmrm1UTF78QZ5ZWOq5RKuvg6KjI8RH7eHpLylZ1yUPGVjsFsoXY9LpbVapW1T6RaVXwySZ7y8nAveb7a2SfQ3u+/Dh06mEsAAAAAAAAAAABOp9YCu+bNm1fosmvZsqXhuGZylZlzuviXdvc781GrgGYlIVS5Pd/Kjbv08PVXiKVicuQZ6CdfT7fi8Y7ZmcqUl/x8vYq723IyKw/A6pKfr7zPFRhaQhXZPlT+xScp98Rh7d+ddO7XmpetnLyS98LHTwHmt8KzhQIsJZ13hjGcpSM3/eXtLqkwVycOJWp38rFKwjpJOqn0k+f6fkny9FdQ85JeyfOO/ayawMBAc6nCmFYAAAAAAAAAAABnVGuBnST17NnTcBwQEGA4rpl8ZR7PUE6hJDWRpXV7dQ4LKA7oPAMU1rm9WltKhjnmZOh4WfhzUsczThWPx3T3VVB4uFqVhXZNFRDWWZFt/YvvU5ij46knlC8fNfM+T3dbnfKUXzNveVYaGDZXWFiwLKUh44lDik84WoWxlOXeCw+LWkd2VlhAU6l01GVkK1k8JKlAORknzu7bZwlRWOuS/fF0WicO/q6Eo+fb1a/i96tjK7+zy5ZWiujUWv6ebsX3TEmtlX0Cg4KCDMfR0dGGYwAAAAAAAAAAAGdVq4Fdr169zCX179/fXKq+rGNKyyzp2nL3ll9IhHpbrbL2jigZCympMFtpySnlwqt8ZSUfUJKtOKhy9/ZXm8jexaMard0VEeJX3DWWf1IpSQeUnJUv+fmpmbe7nbGQ9aWZWjS7yDjasxzPwEC19PEoOXKTp3948ftQ2aN3RxVHpvnKSjmmzJLRou7efgqJ6C6r1areEaWjLqXCHJuSkzNK7t9UgcEt5FP2O+Qi+bcrvsb+I1q9O5aEZlkpSj5yQrnFb7z823Q+e15kGwX4eJaM1jysJFulu/RVWUREhLy8jLsb9unTx3AMAAAAAAAAAADgrGo1sGvXrp25VEv72J2SLWG34g/ZdKJCkJavnBM2HdqXUBy6GZzSsQN7tc/edYW5ykpPUeKuPUo+dqq4u61FM3mr9sY0VltZYFhutGcZTzX1Le6+q5H8NCVs36dDtgzllAR3Z9dydMJ2SPt2JZcLPL3l613cuVh9+co6mqAd+w7JdiLHFDwWKDcrXSmJe88zWrPq2rdvby7ZrQEAAAAAAAAAADgjt6KiIlN6c2E++ugjrVu3ruy4oKBA8+fPN5wD1KZx48bJ19e37Dg0NFT/93//ZzgH1Ze4/5Aef/RdQ+3vz9xtOAbgmv458z3D8d33jtCw4ZcYagAAAAAAAADqT6122ElSZGSk4djDw6N2xmICdkRERBjCOtXWGFYAAAAAAAAAAIB6UuuBXdeuXc2lWhqLCVRkb/Sl1Wo1lwAAAAAAAAAAAJxWrQd2zZs31+DBgw21wMBABQcHG2pAbQgPDzcch4aG8nsNAAAAAAAAAAC4lFoP7CSpd+/ehmMPDw917tzZUAMuVNeuXeXl5WWoMQ4TAAAAAAAAAAC4mjoJ7Lp27SqLxWKohYWFGY6BC9WlSxdzSZdeeqm5BAAAAAAAAAAA4NTqJLDz8vLSwIEDDbXmzZvb3d8OqIng4GAFBgYaatHR0WrevLmhBgAAAAAAAAAA4OzqJLCTpMsuu8xcstsRBdREnz595OHhYahdcsklhmMAAAAAAAAAAABXUGeBXXBwsCIjIw21kJAQBQcHG2pATbRu3dpwbLFYFBUVZagBAAAAAAAAAAC4gjoL7CRp6NCh5pL69OljLgHVMmjQIHl5eRlqo0aNMhwDAAAAAAAAAAC4ijoN7KKiohQaGmqotW3bli47XJBOnTqZS7r44ovNJQAAAAAAAAAAAJdQp4GdJF1xxRWGYw8PD7rsUGP2uuuGDx+u5s2bG2oAAAAAAAAAAACuos4Du4EDB8pisRhqdNmhpux119kbvQoAAAAAAAAAAOAq6jyw8/LyqrC/GF12qAm66wAAAAAAAAAAQENU54GdKumyi4iIUEREhKEGVCY4OFhdu3Y1l+muAwAAAAAAAAAALq9eAjsvLy/9+c9/NpdltVrNJcCuPn36yMPDw1Cjuw4AAAAAAAAAADQE9RLYSdKAAQMUGhpqqAUEBCgqKspQA8zsdWNaLJYKo1YBAAAAAAAAAABcUb0FdpJ06623mkvsZYfzGjBggLmkUaNGVdjPDgAAAAAAAAAAwBXVa2AXGRmp6OhoQ83Ly0vDhw831IBS/fv3rzD2MjQ0VEOGDDHUAAAAAAAAAAAAXFW9BnaSdMstt5hLioiIUNeuXc1lNHLBwcHq1auXuaw777zTXAIAAAAAAAAAAHBZ9R7YNW/e3O5oTKvVai6hkbvsssvk4eFhqA0ePFjh4eGGGgAAAAAAAAAAgCur98BOkoYMGaLQ0FBDzdfXl9GYKDNo0CAFBAQYahaLRTfddJOhBgAAAAAAAAAA4OocEtipkrGGERERioqKMpfRyFQ2IvWee+6Rl5eXuQwAAAAAAAAAAODSHBbYhYeH2x2N2bdvXwUHB5vLaEQGDRpkdxRmZGSkoQYAAAAAAAAAANAQOCywU8loTHMI4+HhoSuvvNJQQ+MxevRo+fr6GmqMwgQAAAAAAAAAAA2ZQwM7SbrttttksVgMtebNm+uPf/yjoYaGb9CgQQoJCTGX9eCDDzIKEwAAAAAAAAAANFgOD+yCg4N12223mcsKCwvToEGDzGU0UF27dlWPHj3MZd16660KDw83lwEAAAAAAAAAABoMhwd2khQVFaXhw4eby+ratau6du1qLqOBiYiIsBvORkdHa8iQIeYyAAAAAAAAAABAg+IUgZ0k3XDDDXb3sxs0aBChXQMWHBysQYMGycPDw1APDQ3VHXfcYagBAAAAAAAAAAA0RE4T2EnSX//61wr72Xl4eMhqtSo4ONhQh+sLDg7WsGHD5Ovra6hbLBbdd9997FsHAAAAAAAAAAAaBacK7Ly8vDR16tQKoZ2vr6+GDRtGaNfAXHbZZRXCOkm65557+F4DAAAAAAAAAIBGw6kCO5V0XT344IPmMqFdAzN69GgFBASYy7r//vsrjEYFAAAAAAAAAABoyJwusJOk8PBw3X///eYyoV0DMXr0aIWEhJjLGjNmjKKiosxlAAAAAAAAAACABs0pAztJioqKIrRrYIKDgysN64YPH64RI0aYywAAAAAAAAAAAA2e0wZ2qkJoFxERYV6CkwoODtawYcMqDetuuOEGcxkAAAAAAAAAAKBRcOrATucJ7a6++mp17drVvAQnUxrW+fr6mpcI6wAAAAAAAAAAQKPn9IGdzhHaeXh4aNCgQerfv795CU6ia9euuvbaawnrAAAAAAAAAAAAKuESgZ3OE9r16dNHV155pXkJDjZo0CANGjRIHh4e5iWNGTOGsA4AAAAAAAAAAMCVAjuVC+0sFot5SZ07d9bo0aMVHBxsXoID/PGPf1SPHj3shnX333+/RowYYS4DAAAAAAAAAAA0Si4V2KkktJs6dard0C4kJETDhg1jXzsHCg4O1s0336ywsDDzkiwWi+6//35FRUWZlwAAAAAAAAAAABotlwvsVBIKPfPMM4qMjDQvydfXV4MGDWJEpgP0799f1157rZo3b25eksVi0dSpUwnrAAAAAAAAAAAATFwysJOk5s2b669//asGDx5sXpKHh4c6d+6sG264gRGZ9SA4OFh//OMf1adPH7sjMCMjIzVr1iy+FwAAAAAAAAAAAHa4bGAnSV5eXrrtttt01113mZckSQEBAbr22mvVv39/8xJqSVRUlEaMGGF3BKYkjRkzRo8++qi8vLzMSwAAAAAAAAAAAHD1wK7UgAEDNHPmTIWGhpqX5OHhoT59+ujmm29WRESEeRk1FBwcrNGjR2vAgAF2wziLxaJHH31UI0aMMC/BhR0/fsJcAgAAAAAAAAAAF6hBBHYqCZCeeOIJuyMyVTJCc/jw4Ro+fDijGS/QlVdeqWuvvVYhISHmJUlSdHR0pXsMwrWdzss3lwC4mNOnK/45Dgvj70UAAAAAAADAkRpMYKdyIzIfffRRWSwW87IkKSIiQiNGjNCgQYPMSziPqKgo3X777ercubPdveosFovuuusuTZo0Sc2bNzcvw8X4t/Azl5R3+rS5BMDFHD9WsVO2adOKndIAAAAAAAAA6k+DCuxKRUZGatasWZV223l5ealHjx66/fbbFRUVZV6GSVRUlG6++eZKx1+qXFfdgAEDzEtwUf7+FUPvhH1J5hIAF2OzHTeX7Ab0AAAAAAAAAOqPW1FRUZG52JAkJSVpwYIFOnz4sHmpTEZGhpKTk7V+/XrzUqMWFRWlrl27nrNbzmKx6LbbbiP4bKDmvPKpNq7bU3bs4+ulhx65zXAOANfy8cKvlXQgtey4XftAvfjyZMM5AAAAAAAAAOpXgw/sJCkvL08bN27UsmXLlJWVZV4uk5eXp3379jX64G7QoEEKCws7Z1AnSWPGjNFVV11VadcdXN/6ddv0+itfGWp/vvlqdY5sb6gBcA1Hj6Tp/feWGmpjbhioW8f9wVADAAAAAAAAUL8aRWBXKiMjQytXrlRMTIx5yaCgoEBHjhzRzp07lZiYaF5ukIKDg9WnTx+1bt36vAFcdHS0brnllvMGenB9J05kadJdLxlqQcHN9ZdJfzbUALiGxf/5Tnt2HTTUXnj5HkW0b2OoAQAAAAAAAKhfjSqwK1XV4E7lxmXu3btXqalnR4g1FP3791fbtm0VEBBgXqogOjpaI0aMUHh4uHkJDdhnn/xXSxZvNNSuuPJiDRpsNdQAOLe98fv17y9WGWoDB3fRQ4+MNdQAAAAAAAAA1L9GGdiVqk5wV1BQIJvNpiNHjigxMdGlw7v+/furdevWCgwMlIeHh3m5AoK6xu3EiSw9/uibOpGeY6gzGhNwHfZGYYruOgAAAAAAAMBpNOrArlRpcLdx48Zz7nFX3rFjx3T8+HHt37/f6cdmRkREqE2bNmrVqpX8/f2rFNJJ0vDhw3XZZZcpODjYvIRG5vuYn/Xe2yvMZf1pzGXq2auLuQzAieyN36/ly9YpJzvPUGfvOgAAAAAAAMB5ENiVk5eXp23btum///2vDh8+bF6uVF5enk6cOKHMzEwdOXJEu3fvNp9Sr7p27aqAgAAFBgbK39//vHvSlRcaGqorrrhCF198MXvUwWDOK59q47o95rL6XNxJQ4cP0kUXeZqXADjQ6dP5+nX7bn234hfzknpFheuxx2+Tt/dF5iUAAAAAAAAADkBgV4mkpCRt3ry5Wl135WVkZCg3N1enTp1SSkqK8vLyaj3Ii4iIUPPmzdWyZUs1bdpUFoulxiHb4MGDNWDAAEVGRpqXAElSbu5pvfTCR/o1Lsm8JB9fL112eR916dpRzZr5mJcB1KOTJ3O0Z3eCfvpxW4WuOknyb+GjF16+X/7+FvMSAAAAAAAAAAchsDuP0qBt+/btWrdunXm52goKCnTy5ElJ0pkzZ6ocBjZt2lTe3t6SpGbNmlV5rOW5DB48WL1791bXrl2r1YWHxuvEiSzNe22R3dCuVFBwc3XsFKbmzZuZlwDUoYyMkzp8KE1JByrfY7Vd+0A9MuVWtWoVaF4CAAAAAAAA4EAEdtUUHx+vX3/9Vb/99lu1xmY6A4vFooEDB6pTp06EdKix3NzT+njhcn3/323mJQBOjDGYAAAAAAAAgPMisLsAqamp2r9/v+Lj4/X77787XYBnsVgUFRWlyMhItW/fXsHBweZTgBrbGrtLn3+6Ugf228xLAJyIfwsf3XjzFRo2/BLzEgAAAAAAAAAnQWBXizIyMpSSkqLDhw/r4MGDSk1NVXx8vPm0OhEaGqpWrVqpS5cuCg0NVUhISI33swOq4/uYn/X9d5sJ7hqI0V/9WPbrpdddbliDaykN6i67PJquOgAAAAAAAMDJEdjVg9TUVOXm5urIkSM6deqUTp06paSks3uAnTx5stJgLzIyUs2and0LLDAwUAEBAZKkDh06yNvbm845OIWjR236dfs+7fjtd53MOnXOfe7gvAjsXFevqHA1szRVj54dFBYWrG7dO5hPAQAAAAAAAOCkCOwAAGU+dbuy7Ndji9YY1gAAAAAAAAAAdcPdXAAAAAAAAAAAAABQfwjsAAAAAAAAAAAAAAcisAMAAAAAAAAAAAAciMAOAAAAAAAAAAAAcCACOwAAAAAAAAAAAMCBCOwAAAAAAAAAAAAAByKwAwAAAAAAAAAAAByIwA4AAAAAAAAAAABwIAI7AAAAAAAAAAAAwIEI7AAAAAAAAAAAAAAHIrADAAAAAAAAAAAAHIjADgAAAAAAAAAAAHAgAjsAAAAAAAAAAADAgQjsAAAAAAAAAAAAAAcisAMAAAAAAAAAAAAciMAOAAAAAAAAAAAAcCACOwAAAAAAAAAAAMCBCOwAAAAAAAAAAAAAByKwAwAAAAAAAAAAAByIwA4AAAAAAAAAAABwIAI7AAAAAAAAAAAAwIEI7AAAAAAAAAAAAAAHIrADAAAAAAAAAAAAHIjADgAAAAAAAAAAAHAgAjsAAAAAAAAAAADAgQjsAAAAAAAAAAAAAAcisAOARmTN1H8qaf1mc7labPG/a83UfyrneLp5CQAAAAAAAABQAwR2ANCIdBw9TOsGT9U3Y+6tdnBXGtTFdJmoZuGt5dOyhfkUAAAAAAAAAEANuBUVFRWZiwCAhuubMfcqa+keSZJldBdFTZmo8EH9JEmful1Zdt7YojVSSVD363uf68js78vWxhz7ksAOAAAAAAAAAGoJHXYA0MhETZlY9uuspXsq7bgr31FXPqzrPHcCYR0AAAAAAAAA1CI67ACgESrfZVdddNcBAAAAAAAAQO2iww4AGqHyXXbVQXcdAAAAAAAAANQ+AjsAaITCB/WTZXQXc/m8eowdYy4BAAAAAAAAAC4QgR0ANFLV7bKjuw4AAAAAAAAA6gaBHQA0UtXtsqO7DgAAAAAAAADqBoEdADRiVe2yo7sOAAAAAAAAAOoOgR0ANGJV7bKjuw4AAAAAAAAA6g6BHQA0cufrsqO7DgAAAAAAAADqFoEdADRy5+uyo7sOAAAAAAAAAOoWgR0AoNIuO7rrAAAAAAAAAKDuEdgBACrtsqO7DgAAAAAAAADqHoEdAECS1O1vtxmO6a4DAAAAAAAAgPpBYAcAUG5urt5avlQ5Lc/W6K4DAAAAAAAAgPpBYAcAjVxubq6eenqa1m34WdtCCyVJh3p76UTuKfOpAAAAAAAAAIA6QGAHAI1Y+bBOkjZbipTTUvrBK0f33j9Zhw8fNl8CAAAAAAAAAKhlbkVFRUXmIgCg4TOHdaV8C6Xskv/OERIcpLffnKvQ0FDDOQAAAAAAAACA2kNgBwCNUGVhnT2EdgAAAAAAAABQtxiJCQCNzLnCumee6qGQ4IsMtZTUNMZjAgAAAAAAAEAdIrADgEbkXGHd63P6atTICL395qWEdgAAAAAAAABQjwjsAKCROF9YN6B/iCQpNNSX0A4AAAAAAAAA6hGBHQA0AlUN60oR2gEAAAAAAABA/SGwA4AGrrphXSlCOwAAAAAAAACoHwR2ANCA1TSsK0VoBwAAAAAAAAB1j8AOABqoCw3rShHaAQAAAAAAAEDdIrADgAaotsK6UoR2AAAAAAAAAFB3COwAoIGp7bCuFKEdAAAAAAAAANQNAjsAaEDqKqwrRWgHAAAAAAAAALWPwA4AGoi6DutKEdoBAAAAAAAAQO0isAOABqC+wrpShHYAAAAAAAAAUHsI7ADAxdV3WFeK0A4AAAAAAAAAageBHQC4MEeFdaUI7QAAAAAAAADgwhHYAYCLcnRYV4rQDgAAAAAAAAAuDIEdALggZwnrShHaAQAAAAAAAEDNEdgBgItxtrCuFKEdAAAAAAAAANQMgR0AuBBnDetKEdoBAAAAAAAAQPUR2AGAi3D2sK4UoR0AAAAAAAAAVA+BHQC4AFcJ60oR2gEAAAAAAABA1RHYAYCTc7WwrhShHQAAAAAAAABUDYEdADgxVw3rShHaAQAAAAAAAMD5EdgBgJNy9bCuFKEdAAAAAAAAAJwbgR0AOKGGEtaVIrQDAAAAAAAAgMoR2AGAk2loYV0pQjsAAAAAAAAAsI/ADgCcSEMN60oR2gEAAAAAAABARQR2AOAkGnpYV4rQDgAAAAAAAACMCOwAwAk0lrCuFKEdAAAAAAAAAJxFYAcADtbYwrpShHYAAAAAAAAAUMytqKioyFwEANSPCwvrCnQkdp/Wr4nTg1O26khZvbOmzu+vS6MidK3VUvX/mVGYpdhvEhW3YZMmvri33EIrTZg9RKOjwzT8qkA1K7dybkXKXB2jrlcf0CNb7tBjVmMwV+rw4Wzde/8GpaSeNtRDgoP09ptzFRoaaqgDAAAAAAAAQENDYAcADnIhYV3hkQN67Ymv9MjCo+alcvw0ZOoIvfRQb1lbe5gXy8lV/PdbNOv2ZVp4NvWzq/WE0VryfH/1P+f9ihUe+k1/6fex3j/SQbPPEdiJ0A4AAAAAAABAI0dgBwAOUPOwrkgnd2/VA1f9uzhcG3KF5j/UWyOubaPWpa10J21a/d+d+vDBb0vOGapVn16pq+yGbLna/f5yXTVxs47IT0OmDtXkazoYO+kq3G+UtnwzSNZmbsZblSnSyfgdmjnpa724NlPS+QM7EdoBAAAAAAAAaMQI7ACgntU8rJN08qBeuvYjTVkrDXnyz/r02c5ngzqzk0f1/gOfa+LCo2p913ht/ldPtTGcW6STset1bd9lWqvOenLVn/XsVX6VjtAsPLJXT4/9t55bKw2f/xetuCvIzrm5iv/yB026YY3WltWqFtiJ0M6ppaena9u2OMVt367MzCwtX/Gd+RQAdSgkOEh9rdFqExqqnr16KLJzZ7Vo0cJ8GgAAAAAAcFEEdgBQjy4orNMZxb//hbpM/LWSAM6OsoDPoqmr7tILV/meXStM0/sj/qWJMT66a/Ht+tf1LewEcOWVC/haX6lVu4frKr+zXXZnA71MSZ315H/7y++BT/RkQtUDOxHaOZ2EhAS9+dY7dn/PAnCsW2++UdeOGqmOHTualwAAAAAAgIs592ezAIBac2FhnaTCdK374oCkrnrk/o7nD+skqVmobp3cQ611SC++sEvxhWeXCvcd0BcxmdKQvrp/uH8V/kJwU7OLu2ryKzdq8bzOCjNdUHj4iBatlYZMvVlbDt+hf17dUk2Mp1RJaKiv3n7zUoUEGwO+lNQ03Xv/ZB0+fNhQR91ISEjQjJmzNPa2O+3+ngXgeJ998R+Nve1OzZ+/QOnp6eZlAAAAAADgQs7/+SwA4IJdcFhXPmAb3lN/uripebkSHmoztKduay0p5qB+SylN7M5o37o9ipHUcWR7RVW6H52Je6Cuf7ivrr++gyJN17iHdtScLZO16oWLZbW7X17VEdo51i+bNmnsbXcy9hJwEe/OX6Db77xbv/76m3kJAAAAAAC4CEZiAkAdq42wTipS5uoYdb16jY5MGK/DH/ZUa/MplSkbfRlYbjRltlY//r6uflEVR2XWljOH9FLXuZpSzZGY5TEes/7Nn79A785fYC6X8Q/wUp9LQxQW0dy8BKCOxf9mU/z24zpxLM+8VOb5WTN05ZVDzGUAAAAAAODkCOwAoA7VTlgnSYU68uVShd7wizrOnqzdj7WpxrjJE/ry9nd1w0L/csGZvVotq4XAToR29epcYd0fb+mogVe1U2CrZuYlAPUsYZdNP/53vzatOWJekiS9PuclDejf31wGAAAAAABOjJGYAFCHVq5aZTesGzmiVTXCOgc5c0gvdXpCbm72Hi/q9i9PmK+oE6GhvrrqyorvVUpqmhb9+z/mMmrol02b7IZ1PawBevr1y3Xt2B6EdYCT6NgtUHc+3E9Pv365/AO8zMt68KHHlJCQYC4DAAAAAAAnRmAHAHVo1MiRumfineaylq84qvnzd5nL5+AmX38ftZaU8Gu60szL51KYrxNHz5irJfKUlpFvLjqV+fN36bMvDprLGnzpJbp30j3mMmogISFBDz70mLmsIdeG6y+PD1CbCH/zEgAn0CbCX39/9Qr1sAaYl/Two1OVm5trLgMAAAAAACdFYAcAdWzixDvthnbvzv+9GqGdm5qFBaiXJK0/rsOV5W/2nMzUnl8zJQWpQ2jpIM1m6nlFG0lZ2paYo0LTJZKkJm302L7nVVRU/jFDW2Z3MJ9ZZ+bP36V35/9uLmvwpZdo1rMz5O3tbV5CDXzy6efmkoZcG66b/9JHXt5VH74KoP5Z/L31l8cHVAjtUlLTtHLVKkMNAAAAAAA4LwI7AKgHtRHauXdqp5uH+0kJv2tN3CnzciUKdGjlb/roiKThbdUzpPTHvodCo9ppiDIV88UB7bOb2DkWYV39SEhI0PIV3xlqPawBGnNbT0MNgPPy8m6i2/9mrTAec+asF5Senm6oAQAAAAAA50RgBwD15IJDO/cWGnxzO0m79cqbCTpUIWQ7o/j3P5HblSv0/mqbTkrSycP6bO4OHVEr3TWpozqV/dR3U7OLu+i24X5SzDq9sCTdfpedgxDW1R973XXX3d6DzjrAxVj8vTV+cpS5rC+/XGIuAQAAAAAAJ0RgBwD16MJCuyaKvOlyzR7ipyPvf63xT/6m+JNF5dbPqFDear32B028+iVF3r5Szz+wWFPWZkpD+ur+4f7GH/rugbrpn5driI7q/Ru+1JNfphWHfJUq0sn4eC1abjMv1CrCuvqTnp5eobtuyLXh7FkHuKge0a0U3sliqC39ZpnhGAAAAAAAOCcCOwCoZxcU2jVrq0c+/bOeHCKtffFjdbn2v3p/6SEdKZQkb3W96wYdPjxeEyQdWbhSTy48KrXup/lv9ZW1mZvpZm5qZu2rt+b3U2vt1Ys3vKzI23/Uf8ruV6IwS7FLf9X7j78vS5eP9eLaTKl1R13RvfaDM8K6+rVtW5y5pMHDIswlAC5k+A2dDMcpqWlKSEgw1AAAAAAAgPMhsAMAB7iQ0M69dWc9++k4vTKhlbT2B00cM1ehHk/Iza3kEfqxFpa/4MgefbRgl2KPFJSvlvBW17vGKHbLzZo6xE9HFn6rP5vv5zFLfcd8ookv7pXUShNm36U98dfrrq61G54R1tW/33/fbzj2D/Ciuw5wcZE9gswl7dq921wCAAAAAABOhsAOABzkwkK7dnr4w8k6vOVOLZ5/hYaY1ltP+KP+vXi8Fi++XlOHSGtf/EJ9Q+dq4pf29qrzUGvrxXphzSPas2qCnfv5acjU67V48T3ak/U3ffhYpCIrdOtdGMI6xzh0+LDhOLJ3S8MxANdj8feuMBYz+2S24RgAAAAAADgft6KiovIbIAEA6tn8+Qv07vwF5rLumdhBEyd2M5errzBLsd/s0qI5exT00o16zNrUfIZDEdY5zp/G3KCU1LSy4/GTe2nQsPaGcwC4ngWvbtamNUfKjkeOuEbTnnnKcA4AAAAAAHAudNgBgINdSKddlbhbZB3dXy+suY2wDgblwzoAAAAAAAAAjkNgBwBOoM5DOydEWAcAAAAAAAAAxQjsAMBJNKbQjrAOAAAAAAAAAM4isAMAJ9IYQjvCOgAAAAAAAAAwIrADACfTkEM7wjoAAAAAAAAAqIjADgCcUEMM7QjrgLqUrc0zXpO13w/adca8VkXZadq8/Be9PmamrEFTSh7/0uuf7NKulALz2QAAAAAAAKhFBHYA4KQaUmhHWAfUpQKlLY/R03OTzQtVVpiyV2+Me1v33vEffbg+s9xKvD586H2N7/m+3vgpQ4XlVgAAAAAAAFB7COwAwIk1hNCOsA6oS7lKWh6jp+7YIJt5qaoK07X2ua/1/vpMBd40SrNXPqPNabMVmzZbm397UNMnR0qK1/v3rdbaI3TaAQAAAAAA1AUCOwBwcq4c2hHWAXUoO1WrZ3yk6+5YrVjzWjUU7t+rxZ8clUKu0rPPX66rovzK/oHoHtJW1z49WtOu9JNSftPi1cfosgMAAAAAAKgDBHYA4AJcMbQjrAPqSoFsP32veyJma8rceGnQcM37YLjCzKdVyRkl/7xHP0sKvKmzulvczCdI7i118egISZn6eUOKjpvXAQAAAAAAcMEI7ADARbhSaEdYB9SlAqVtT1CsInX73Af13ZfD1D/sIvNJVdRE4eNuU2zabH03rZN8zcuSJHf5+PuYiwAAAAAAAKhFBHYA4EJcIbQjrAPqmoeCBg/Vx7/dpQdvaavAOv/X3Cntj02W5KdLLg1RS/MyAAAAAAAALlidf8QDAKhdzhzaEdYB9cFDgVGd1C3Ew7xQJwqP/K4Vi5IlRWj4JS35xyMAAAAAAEAd4DMXAHBBzhjaEdYBDVBhuta+EKOlKX6yTh+iYR2bmM8AAAAAAABALSCwAwAX5UyhHWEd0AAVZmjzc//RlE+OKvCmEfr7HWFiJzsAAAAAAIC6QWAHAC7MGUI7wjqgASrM0ObnFuneOfHSoOF6dtrFivB1M58FAAAAAACAWkJgBwAuzpGhHWEd0ACZwrq337lK/eppvzwAAAAAAIDGisAOABoAR4R2hHVAQ1OknIQ9Wjj5Pd07J16BN92sxZ8MJawDAAAAAACoBwR2ANBA1GdoR1gHNDQFsm3dqOdHv6fXFuXIOnmC/vWilTGYAAAAAAAA9YTADgAakPoI7QjrgIamQLafVuvv13yl5SmtNHLmbfrn070UTlgHAAAAAABQbwjsAKCBqcvQjrAOaHgKj+zUm/fFKFZ+sk6/SU/cG6FA/oUIAAAAAABQr/g4BgAaoLoI7QjrANdWEPeDRgdNkTVosVanFJZUT2nPl5u1NEWSMhU7/XVdFjRF1soe/X7QrjPG+wIAAAAAAODCEdgBQANVm6EdYR3QQBVmKf6HQ+YqAAAAAAAA6plbUVFRkbkIAGg45s9foHfnLzCXdc/EDpo4sZu5XAFhXcM14NLLDcfjJ/fSoGHtDTUArmfBq5u1ac2RsuORI67RtGeeMpwDAAAAAACcCx12ANDAXUinHWEdAAAAAAAAANQ9AjsAaARqEtoR1gEAAAAAAABA/SCwA4BGojqhHWEdAAAAAAAAANQfAjsAaESqEtoR1gEAAAAAAABA/SKwA4BG5lyh3V13/0BYBwAAAAAAAAD1jMAOABqhykK7HTtPmkuEdQAAAAAAAABQxwjsAKCRqiy0K4+wDgAAAAAAAADqHoEdADRi5wrtCOsAAAAAAAAAoH4Q2AFAI1c+tPvbRo+yB2EdAAAAAAAAANQPAjsAgN1OO8I6AAAAAAAAAKgfBHYAAKkktANQm05r1xtvyxo05RyPmbpnxi9avSJZtkLz9SXOJGthvymyBi3W6pTKTqoH2alaPeNfsgZN0TUP/KCVP6UpR0XK/mmFrgn6SEsTzpivAAAAAAAAQBUR2AEAADhMpmLn/kdTJryma67/XptTCswnOIkzSlrynabMjZck2RYt0+PXv6jLgqbq8utXyxYSqNBgD/NFAAAAAAAAqCICOwAAgDoVoJEfPKXYtNl2HjP11Zd/1u2D/KT1Mbp30uqKoV2TME3YPFuxaTfoqhBH/dPtpPZtOKTAcRP035QX9dPP9+qF6VYFSlKIVY8sHCSrxc18EQAAAAAAAKrIUZ/6AAAAQN4Kv6y/HvzkL5p2UytpfYyefme/ss2nOZy/rnrjCX03p5eC3N3k07Gjhj5wi75Lm63Y327RuGg//lEJAAAAAABwAfhsBQAAwNF8W+nap4drdIhkm7tRK9kPDgAAAAAAoFEhsAMAAHAC7q07aMRNYZISFfPzcRWWLpxJ1sJ+U2QNWqzVKWVVSQWyxe3Wyjc+1zVBU2QtfYxZrqXLE5SUXVTu3HKy07T56x80rafpmhXJspW/fYmCuB80OmiKrA/8Klthpnat+EWvj5lZcu1M3TNjkzYn5JovK2HvNc7UPTN+0Q9xmWe/RgAAAAAAgEaOwA4AAMApNFV7a5ikTO1LyNQp87JBgdKWf61xQ+fr8emxspVfWr9WM+54W9eN+0m7TKFdYcpevTHubd07cZmWp5RbWL9WMya8pnGTN2iHeQ+9UgVH9e0j/9L4Cf/Rh+szS4qZip37b907+hst3WsK7QoztePtf9t5jZmKnfsfPTL0Nd07a6/dkBAAAAAAAKCxIbADAABwCu5qERaoMEm2347r2LmCrKz9+uzxDbKplUbOfEDfpcxWbNpsxaa9qJ9+nqDbB/lJ6zfos7UZZ6/JPqiPJ32u99dL1sl/1ts/zyx3zSRNmxwp26Kv9MhzO5Vm77kXx+i1lW30t/9M1U/m50rZpDc/Sy63916B0las0iPPxBa/xul366vEF4ufL+UZfTx3iKzKVOycz/X3tw4qx/BEAAAAAAAAjQ+BHQAAgLPZf0rZ9kKzEgW/H9KqFEkh3XXtuHYKLPsXnZt8OvbSg0ueUWzaE5ox0r+kfkZJS9bqtfWZChw3RrOe7q9+Hb3LXdNJo5++UbPHtZLtk81a8au9/r5WGv3CNRp/RZB8pJLremrio30VKMn2zSEllW69Vy5QHP3BXZr+QBeF+7oVr7n7qdstf9CsDy5VoDIV+9Zv2pFVyfhOAAAAAACARoLADgAAwMV4dGijq0MkpWzRv17dVIX94E5q34ZDkjpq3J1dFGTvX4DuzdV7WISkXVq87pgqDMYM6a4Rl/ub/vHopqahAepkqBkDxYrXSJKHgkYM0v1X+kkp8dq4jR47AAAAAADQuFX8/AQAAACO1b6pfM/1rzRLGw27r1u5/eBmql/QFF3zwA9auTxBSaa963TmpJI3HZOUoNeGPiVr0BQ7j8d1zR0/S5KSd6Yr3XgHqamPmjUt6ZIrx71ZUwUYKoVKT7YpWZKuCFN7S8VrJEnuvgrt6ScpWau2p1cMCAEAAAAAABqRc30UBAAAgHpzNugK7NlSAef8V1pTdXtgrL768s/Fe8iVsC1apsfveFvXRUzVNQ9s0I4UZ47BPNUswMtcBAAAAAAAaJTO+VEQAAAA6ssp7Y9NluSnTh391NS8XIG3wi/rX7xfXeJUvf3BBL0w3arAklXboq80YdJ67TJ02/XWtJ+fU2za7HM/3uhVdp+6k6+Tx/Ik+SnM/yJV0ocHAAAAAADQKBDYAQAAOIHChB36YG6yFNJTN1wVUL1/pPkGqd/IXhr6wC36Lu15ffflcFklaf1Obd6XL7lfpObt/SQd14HDeeara5m7WoQFKkySfkjW/izTeM5Shdk6/FumJD91Cfet3tcLAAAAAADQwPDZCAAAgKNlH9U3r/ykn+Un6319dUlrD/MZ5RTKtnxx8b5zN21SUqF53UOBfdqrZ0i5kntLXTw6QlKyPnw51tR1V6IwXasfelnWoJl64JNUVbhtNXh0aKOrQySl7NQ3X6cox3yCCpS2Yr3eXJMphYSrZydv8wkAAAAAAACNCoEdAACAoxRmateKX/T6uH9pxqKj0qAr9PAdYfIxn2fgrsDLo3R7iKQ13+nZZ2O1q/xeddmpWv3qGn2YImlQd/Xr5CmpicLHDNHfBvlJ67/RQ1N/1Oq4zLJQrjAlWavf+k4vfHK0Zh1+Zpb2uvWFSxWoo1r+0Cd6/o09SioNCQsztevz/+qpOzbIVqWAEgAAAAAAoOFzKyoqsvNfrAEAjdGnbleW/Xps0RrDGhqeAZdebjgeP7mXBg1rb6jhQpzWrjfe1/jpCeYFuwJvuk6vTBugHiGm8OpMshYOfE2vJV6i2b9dp6tC3CUVyPbTav39+hjFGs8+K6S/pn11rUZ3Lu1eK1LO3lg9f90XWp5iOrdUhWukgrgfdP3QZUqOGKWPN16hbk0MV0gpv2paz4Vabl4vzNSOd7/VI8/Eyma6pJifrA/don8+2VmBF5QOwmzBq5u1ac2RsuORI67RtGeeMpwDAAAAAACcCx+PAAAAOEwrjZw+VrO/nKqv3ri0YlhXKQ8FXjZUc36+V7PnDCner65UiFV/mz9RH6+63hC8SW7y6dxXM36Zqrfnj9LI8iMzFanb59xl55oL4O6nHvf+WZ+snKgXplsVWLbgJ+vkG/XKyr/p7acI6wAAAAAAAESHHQCgPDrsGhc67ICGiQ47AAAAAABcD/+nGQAAAAAAAAAAAHAgAjsAAAAAAAAAAADAgQjsAAAAAAAAAAAAAAcisAMAAAAAAAAAAAAciMAOAAAAAAAAAAAAcCACOwAAXMzmeQuUtH6zuQwAAAAAAADARRHYAQDgYtoPv0LrBk/VN2PuJbgDAAAAAAAAGgACOwAAXExgZAe1njJMWUv3ENwBAAAAAAAADQCBHQAALqjX3beU/ZrgDgAAAAAAAHBtBHYAALig0i678gjuAAAAAAAAANdEYAcAgIsq32VXHsEdAAAAAAAA4FoI7AAAcFH2uuzKI7gDAAAAAAAAXAOBHQAALqyyLrvyCO7qS5Fy9h+TrdBcr22ntOuN92UNelsL406bFwEAAAAAAOCC3IqKiorMRQBA4/Sp25XmEhogy+guipoyUX+e8qihPn5yLw0a1t5QQxVlp+mXD1Zp2getNWfjFerWxHxCbSlQ2vKvNf6ODbKpo/628i5NiLrIfBIauQWvbtamNUfKjkeOuEbTnnnKcA4AAAAAAHAudNgBANDIlHbcofYU7Nupf06Plc28UMsKj+zUW49vqPPnAQAAAAAAQP0isAMAoBHqPHeCuQRnV5iutS/EaGmKeQEAAAAAAACujpGYAAC4sJzj6VoScL25XKnOcyeox9gx8mnZQgMuvdywxkjMmiuI+0HXD12m5IhR+rhORmKWjsL8Te2mj9LInd9pxiJ/RmLCLkZiAgAAAADgeuiwAwDAhe34dIm5ZFfnuRM05tiX6vfXO+XTsoV5GTV2QqsfeF79hy5TsiQlLtP41lNkDVqs1SmFKoj7QaODpshapcfzmrb8hPkJpPKjMAddoYfviJDFfEKVFcgWt1sr3/hc15R/7jHLtXR5gpKyK/l/XNlp2vz1D5rW03TNimTZCs0nF78nZV9Pdpo2f7Jc95S77pu4TBVfViBb3K9a+MDLJfedqXtmbNLmhFzzTQEAAAAAABo0AjsAAFxUzvF07Z280Fw2IKhrALIP6uP7lmhpSjf97R/91M3XzXxGFRV36Y0bOl+Pm/fbW79WM+54W9eN+0m7TKFdYcpevTHubd07cZmWlx/HuX6tZkx4TeMmb9COlIJyC2cVJO4svvahtYotLa5fq+lD/6Vnl6cp7afV+vvQhXpt0dGSxUzFzv237h29QquP2L8nAAAAAABAQ8RITAAAXNTmeQsqDezKj76sDCMxa0/djcQ8pV1vfKbx09M1+oO79PTIFnLXCa1+4G1Nqe5IzKx9en3gO/owpZVGzrxBD94ToUB3SSpSTsJveu/RJfpwvadGfnCvZoz0L74m+6AWjvtAr62XrJOv0V/G9Va/jt4l1yTo+0/WaMbceAWOm6CPX+mlIHeVdNi9rSmLjkmSAm+6Tq9MG6AeIR5SdqpWv7xUU+bGS/07ynrAQz2f/oPG3tRWge7lX0emAidP0pfTOsm3/NeAKmEkJgAAAAAArocOOwAAXFBl3XV01DUkRcqJ26xXp+9S4Ljhum9Eiwv6h1vB74e0KkVSSHddO65dSVgnSW7y6dhLDy55RrFpT5wN63RGSUvW6rX1mQocN0aznu5fEtaVXtNJo5++UbPHtZLtk81a8eup0hueNehazXlxYHFYJ0m+wRoyLkqXSNKmNOm+P+juW9qWvBY3+XTsobF/6S5JsqWckp07AgAAAAAANEgX8rkPAABwEPPedQR1DVB2sv7zfz8oNuRSPf5495LutZrz6NBGV4dIStmif726ST+U7SNXmZPat+GQpI4ad2cX+8/v3ly9h0VI2qXF647JPMQybFgHRZpGeLoHt1SXEEkK0uDBIfIxrqpFWKDCJCntlHLO/QIBAAAAAAAaDHsfvQAAACdWvruOoK6hOqVdH3yv19b7aPQLQzSkdUmH2oWwtNGw+7qV7BP3Hz0ydKb6BU3RNQ/8oJXLE5Rk2rtOZ04qedMxSQl6behTsgZNsfN4XNfc8bMkKXlnutINNwhQVEQzVXjlTb3l31SSghTW6hyzQ/efUjaBHQAAAAAAaCQI7AAAcDE7Pl1CUOciCuJ+0OgKIVdlj+c1bfkJSQWy/bSu1kZhntVU3R4Yq6++/LNuH+RXVrUtWqbH73hb10VM1TUPbNCOFHOfHAAAAAAAAOpa7Xz+AwAA6k2PsWMI6hq0LG3/PFaxkmyfLNQfQszB3ixNWVS+86006KsKb4Vf1r94v7rEqXr7gwl6YbpVgSWrtkVfacKk9dpl6LbrrWk/P6fYtNnnfrzRq+w+AAAAAAAAqB4COwAAXAxBnevwiLpCS83BVqWPJzRjpL/5FnXHN0j9RvbS0Adu0Xdpz+u7L4fLKknrd2rzvnzJ/SI1b+8n6bgOHM4zXw0AAAAAAIBaRGAHAADgVPx11RtP2An0Sh9PafZNAZI66m8rZ1Ux6CuUbfni4g69mzYpqcLecB4K7NNePUPKldxb6uLREZKS9eHLsaauuxKF6Vr90MuyBs3UA5+kqsJtAQAAAAAAUCUEdgAAABfIrVlThUnSqeM6kuaMe8C5K/DyKN0eImnNd3r22VjtKr9XXXaqVr+6Rh+mSBrUXf06eUpqovAxQ/S3QX7S+m/00NQftTousyyUK0xJ1uq3vtMLnxyVQnrqhqsC+IclAAAAAABADfG5CgAAwAVyD26pLiGSUjZoSu8nZA1arNUpTtZvZmmvsW8Nl1WZip37ucb3fOLsvngRszVlbrwU0l/TZvdXN1+34mt8w3Tj7BEaGSLZFi3TlKEz1a/kmn49X9OU6bGyhfTXtK9G6KrWHuZnBAAAAAAAQBUR2AEAAFwoS3uN/eQW3T7Ir6SQpuSjZ0wnOZqHAi8bqjk/36vZc4YU71dXKsSqv82fqI9XXa/Rnb3LLbjJp3Nfzfhlqt6eP0ojy4/MVKRun3OXnWsAAAAAAABQXW5FRUV2NiQBAAAN3YBLLzccj5/cS4OGtTfUALieBa9u1qY1R8qOR464RtOeecpwDgAAAAAAcC502AEAAAAAAAAAAAAORGAHAAAAAAAAAAAAOBCBHQAAAAAAAAAAAOBABHYAAAAAAAAAAACAAxHYAQAAAAAAAAAAAA5EYAcAAAAAAAAAAAA4EIEdAAAAAAAAAAAA4EAEdgAAAAAAAAAAAIADEdgBAAAAAAAAAAAADkRgBwAAAAAAAAAAADgQgR0AAAAAAAAAAADgQAR2AAAAAAAAAAAAgAMR2AEAAAAAAAAAAAAORGAHAAAAAAAAAAAAOBCBHQAAAAAAAAAAAOBABHYAAAAAAAAAAACAAxHYAQAAAAAAAAAAAA5EYAcAAAAAAAAAAAA4EIEdAAAAAAAAAAAA4EAEdgAAAAAAAAAAAIADEdgBAAAAAAAAAAAADkRgBwAAAAAAAAAAADgQgR0AAAAAAAAAAADgQAR2AAAAAAAAAAAAgAMR2AEAAAAAAAAAAAAORGAHAAAAAAAAAAAAOBCBHQAAAAAAAAAAAOBABHYAAAAAAAAAAACAAxHYAQAAAAAAAAAAAA5EYAcAAAAAAAAAAAA4EIEdAAAAAAAAAAAA4EAEdgAAAAAAAAAAAIADEdgBAAAAAAAAAAAADkRgBwAAAAAAAAAAADgQgR0AAAAAAAAAAADgQAR2AAAAAAAAAAAAgAMR2AEAAAAAAAAAAAAORGAHAAAAAAAAAAAAOBCBHQAAAAAAAAAAAOBABHYAAAAAAAAAAACAAxHYAQAAAAAAAAAAAA5EYAcAAAAAAAAAAAA4EIEdAAAAAAAAAAAA4EAEdgAAAAAAAAAAAIADEdgBAAAAAAAAAAAADkRgBwAAAAAAAAAAADgQgR0AAAAAAAAAAADgQAR2AAAAAAAAAAAAgAMR2AEAAAAAAAAAAAAORGAHAAAAAAAAAAAAOBCBHQAAAAAAAAAAAOBABHYAAAAAAAAAAACAAxHYAQAAAAAAAAAAAA5EYAcAAAAAAAAAAAA4EIEdAACN1MgR1xiOkxMzDMcAGgY/P4u5BAAAAAAAnAyBHQAAkCT9vivdXALgYvJyz2jTmiOGWqdOHQ3HAAAAAADA+RDYAQDQSEVH9zEcJ+3LUtaJXEMNgGvZt9NmLqldeDtzCQAAAAAAOBkCOwAAGqnoiy82l7R9s7EzB4Br2fTDQXNJnTt3MpcAAAAAAICTIbADAKCRCg0NVY/uXQ21ZZ/GKy/3jKEGwDUcSjxRYRzmrTffKG9vb0MNAAAAAAA4HwI7AAAaseuvG204PnEsT0s++s1QA+Aavvpwh7mka0eNNJcAAAAAAIATIrADAKARGzVyZIUuu7XfJCl2fcWxegCc1zef7tCO2GOG2sgR16hjx46GGgAAAAAAcE4EdgAANHKT7rnbXNJ7L/xPO7YeNZcBOKFvPt2hbz9PMJd198Q7zSUAAAAAAOCkCOwAAGjkBvTvr1tvvtFc1rzpm7Ryaby5DMBJ5OWe0Rf/2mY3rHvmqccVGhpqLgMAAAAAACflVlRUVGQuAgCAxiU3N1dPPT1N6zb8bF5SeCeL/jS+m3pEtzIvAXCQ9d/v17JP43XiWJ55SfdMvFMT6a4DAAAAAMClENgBAABJUnp6up6d9Zzd0E6S/AO8dOmwMHW/OETeTZvIz99bFn9v82kAapnt6Enl5Z7RieO5+i32qLZtSLEb1EnS4Esv0axnZ8jbmz+bAAAAAAC4EgI7AABQJjc3Vy/OflnLV3xnXgLg5OisAwAAAADAdRHYAQCACpYtX66Zs14wlwE4oZDgID3198c1oH9/8xIAAAAAAHARBHYAAMCu9PR0ffnlEr07f4F5CYATCAkO0j1/uUtDr76aEZgAAAAAALg4AjsAAHBO6enp2rYtTj+tW8+oTBf3t40eZb9+bWCBYQ2uISQ4SFddeYUGDrxEUb17E9QBAAAAANBAENgBAIBqSU9P1/Hjx81luIBfOt1d9usB+94zrMH5tWzZUi1atDCXAQAAAABAA0BgBwAA0Eh86nZl2a/HFq0xrAEAAAAAAMBx3M0FAAAAAAAAAAAAAPWHwA4AAAAAAAAAAABwIAI7AAAAAAAAAAAAwIEI7AAAAAAAAAAAAAAHIrADAAAAAAAAAAAAHIjADgAAAAAAAAAAAHAgAjsAAAAAAAAAAADAgQjsAAAAAAAAAAAAAAcisAMAAAAAAACA/2fv3sO0qs9D798gICJnQWBUUBQ8oolGjdF4SmJidlptbJrWJlRDY7PTmvQQbZPmTX33Tm0bkzaNbuvO6ymaqo3RamJiRAWNIJ5QERUYkDMzwDCchsMwjMz7h3nIrMUAM8zMs9Z65vO5Lq6y7t+SK1eqieHr/VsAkCHBDgAAAAAAADIk2AEAAAAAAECGBDsAAAAAAADIkGAHAAAAAAAAGRLsAAAAAAAAIEOCHQAAAAAAAGRIsAMAAAAAAIAMCXYAAAAAAACQIcEOAAAAAAAAMiTYAQAAAAAAQIYEOwAAAAAAAMiQYAcAAAAAAAAZEuwAAAAAAAAgQ4IdAAAAAAAAZEiwAwAAAAAAgAwJdgAAAAAAAJAhwQ4AoEIsn/lybFu/IT3usHXVi6P29TfTYwAAAAC6iWAHAFAhBow8LB457NPx8i13HVC4W1e9OKZff2NMPX5KDBl7RPoYAAAAgG4i2AEAVIgRE8fHmOs+FguvvadD4a51qKu96cmYcPPkGDB8WPo1AAAAALpJr5aWlpb0EACAYlpXvTimHj8lMZtw8+Q4+crL45HDPr17dmXL9FhXvTjm3v5A1N70ZOL9y+sfFuwAAAAAykiwAwCoMNOvv3GPCJc25rqPtfnOhJsnx5l/cXV6DAAAAEA3EuwAACpMW1t27WW7DgAAAKD8fMMOAKDClL5l11G+XQcAAACQDcEOAKACTfrTP0yP9uvkKy9PjwAAAAAoA8EOAKACdXTLznYdAAAAQHYEOwCACtWRLTvbdQAAAADZEewAACpUe7fsbNcBAAAAZEuwAwCoYO3ZsrNdBwAAAJAtwQ4AoILtb8vOdh0AAABA9gQ7AIAKt68tO9t1AAAAANkT7AAAKtzetuxs1wEAAADkg2AHANADtLVlZ7sOAAAAIB8EOwCAHuCdjeuirqpl97PtOgAAAID8EOwAACrciy+9FF/5y6/FK6N+G+xGXPzBxDsAAAAAZEewAwCoYKVYFxFR3b8l6qpaYukxLfHVb3wzampq0q8DAAAAkIFeLS0tv/1HrQEAqBitY13JxMZesaFPS9T1iRh1+Mi47dabo6qqKvEOAAAAAOUl2AEAVKC2Yl1bRDsAAACA7LkSEwCgwuwt1o06vF+MOrxfYrZmbV186cvXuh4TAAAAIEOCHQBABdlXrLvt1g/Fbbd+SLQDAAAAyBnBDgCgQuwv1lVVHRpVVYeKdgAAAAA5I9gBAFSA9sS6EtEOAAAAIF8EOwCAgutIrCsR7QAAAADyQ7ADACiwA4l1JaIdAAAAQD4IdgAABdWZWFci2gEAAABkT7ADACigroh1JaIdAAAAQLYEOwCAgunKWFci2gEAAABkR7ADACiQ7oh1JaIdAAAAQDYEOwCAgujOWFci2gEAAACUn2AHAFAA5Yh1JaIdAAAAQHkJdgAAOVfOWFci2gEAAACUj2AHAJBjWcS6EtEOAAAAoDwEOwCAnMoy1pWIdgAAAADdT7ADAMihPMS6EtEOAAAAoHsJdgAAOZOnWFci2gEAAAB0H8EOACBH8hjrSkQ7AAAAgO4h2AEA5ESeY12JaAcAAADQ9QQ7AIAcKEKsKxHtAAAAALqWYAcAkLEixboS0Q4AAACg6wh2AAAZKmKsKxHtAAAAALqGYAcAkJEix7oS0Q4AAACg8wQ7AIAMVEKsKxHtAAAAADpHsAMAKLNKinUloh0AAADAgRPsAADKqBJjXYloBwAAAHBgBDsAgDKp5FhXItoBAAAAdJxgBwBQBj0h1pWIdgAAAAAdI9gBAHSznhTrSkQ7AAAAgPbr1dLS0pIeAgDQNToT63bVroqfz3wnHv7KL+Oe2tJ0cFx4/Ufj2g8dEef8zhExpt3/+NW7UTt7UcyaszhunvJsPNPqZMzkT8YPLjsyTr3kmJg4sFerk5Qt62La1MXxxM1PxXee2fyb4YS4/o5z4w8unRBnjDko9QdE1NRsjS99+flYs7YpMR91+Mi47dabo6qqKjEHAAAA6IkEOwCAbnLAsW5XQ7z074/H5X/9auzudG258IK4+7vnxefPGLSPaxNaYkv1wrjtH38Z192zOn2YNOb0+NdHLo2vnrXnr7erdmF888oH4592h7q0CfH1pz8T37548B5/rGiXb7uaG2PbhiXR2LAydm5fFzu3rUm/AnSj3n0HRv/B4+KgPgNiwPBj4+CBo9OvAAAAPYBgBwDQDQ441m1ZHXf++QMx5Z7Ve9lea4zqaQviZz+a/psAt/dQFtESW+a/Gn9+8YPvbehdeEHcce3xcV5iky79650QN73y2fjaGYf89pfZtSEe/uKP4oo7V8eYyZ+MW77y/rj8N5FwV+2KuPf7U+Oq7yyMGHNOPPTyp+LTR9i0K4JNta/G+iW/jMZNc9NHQIb6DhgXg0efG8PGXRB9+w9NHwMAABVKsAMA6GIHHOtie8z+7n/FB66bH3HhR+Pp+y6Ki9u4ZvI9jTH/zl/ExVNejtq9hbItK+K7v3NvXPdMxIVf/0zc9+0Je79Cc9fmmPbNB+Mj/7Qw4pLfjwWPfyAm/ubdXdWvxKXH/zSmjrkonp5/SVw8OHVt5q66uPPS/y+mTI245I4vxuNfGNlGPBTt8mJT7atRV/1A7Ny2LH0E5MhBfYfG8PG/H8PHfjh69+mfPgYAACpMW7+XAgDAATrwWBexq/qt+MZ189/bVPvxvmJdRET/OOELn4yf33RCRO2s+IsfLI3kZZXNUf2TX8d1z2yOMV/43fjxvmJdRETvwXHxNy6Jmy4cHDF1VtzxzNbfHDTHohkLYmpEjPn8cfGBdKyLiOg9LM777LiI2BxTn10Te7tQsarq0Ljt1g/FqMP7JeZr1tbFl758bdTU1CTmdK1dzY2x/OXvR83r/yLWQQG8u3Nj1C24PRY989XYsWU/VxoDAACFZ8MOAKCLdCbWRTRH9Z3/FcdPWRYX3vT5+PnXjoqB6VfasGvVm/HFM38cd9ZOijsWfDa+MLHPbw5KW29Ve15xuVfNUf3wKzEjBsfRp4yPiye2d6NjV9Q+/GhUXfFixOTPRc2PTokx6VdasWlXfju2rI6aN27f7/WXa+q3R2Njc3oMdLNxRwxKj/ZQ9b6/jSFjTk+PAQCACiHYAQB0gc7FutaBbVwyvO3X1pj2t3fGR76zPSY/dE386NPvfe9o9zWWx34yXpl/fpzR3l/ugJT+NTTs80rM1kS78tmxZXUse+Ef4t2dG9NHERHx2tvr4uU36+L7d+875gHd6zOfGB+nnzwiLjyrKoYMSm4il4w++SsxbOy56TEAAFAB9vd7KQAA7EenY11ExJbNsWDu5ogYEEMHdeRv0Q6OI48fHhHrY+birfHeblRLbFlZH3MjYswVR8SEbo11EbtWLYn/vHdVRIyLz543rF1/g+l6zPLY1dwYNW/c3mase+3tdfGV/z0z/vhr08Q6yIEHf7U4vv69l+Kczz4Sjz69NHY0vZt+JVa/9YPYUjcvPQYAACpAe34/BQCAveiSWBcRsXV7rK6NiGMPi3EjO/K3aL1j0NABqVlLbN24LWojYsDI/pE+7VK7NsQj33oq7qwdHBfedH78Qbs3A0W7clj52m1tXoN532OL4o+/Ni2emrUqfQTkwNe/91LceNtrsaZ+e/ooauZ8P3Y27hnhAQCAYuvI7wYBANBKTU1Nm7EuIjoW6zLRFLO/+8Po1evv2v7xJ29GbfoPSdu1OaZ98+G44s7VMWbyx+M/vnRku76711pV1aHxb987Kz3eHe0aGxvTR7TTlrp5sXXdrPQ4/uEHr8S3b301PQZy5sFfLY6vfnvmHtHu3Z0bY838nyZmAABA8Ql2AAAHqKqqKq6ZcnV6HBERjz++PD3at0MPidFjIuKd+lhWtyt9ug+7omHjtvRwt211jbH3007YtTmmffPB+Mg/LYy48KPx439+X5wwsFf6rf1qbGyOW//j7fQ4IiL+/ht/G/3790+PaafVb9+VHsV9jy2KB3+1OD0GcuqNBevjq9+eucf1mA21T8a2DUsTMwAAoNgEOwCATpgy5eo2o90P71gcd9zRge8MDRwcx08aHBF1sbjmvS/Rtc+OWLlgfUQMj3PHHxrvXUjZO0adclRcEhG1r2+I1W32v35xxteuiZaWf0782PnKJ+PY9KtpqVj39H0XxcVjDkq/tV+Njc3x9998OWY8vz59FD/4/nfj7LP23LyjfTbVvho7ty1LzF57e53NOiigNxasj1t+/FZ6HOsWPZIeAQAABSbYAQB0UpdEu97D4rzPjouIdfGL6WtiS/p8L3atWhL/ee+qiDgiLjjltxdS9q4aFR+7cHDE1AUxY1FHAuC+tMSW6ur47tV3xkf+aWGMmfyZmPfzj4h1ObR+yS/To7jroQXpEVAQd/x0fixb1ZCYbV03y7fsAACgggh2AABdoPPRrk8cd97xcUlsjmf+9dWYuip5/VlExK7qV+Ljve6Iv73znaje0hIR2+O1+1+JO2sjxnzhtPj4ce/t10VExMAx8bufHxcRc+Ob/zI/VrW5ZdcR70btSy/En194Z1x3z7a48PrPxTP/5/QDvgZTrOs+u5obo3HT3MTstbfXxVOzViVmQLE8MXNlehRb1u65eQcAABSTYAcA0EU6G+16Tzw5brzphIjaWXHF556Kh6sbW522xLZdvWL0mIXxnSn/Xxw/8cH453/+efzOdfMj4oT46y8fG0ck/s6uT0z8g/PjpgsHR+2dP4vPff3N30S+fdhSFz/7ycJ4Jz2Pd6N22vS48uxH457a0TH5X/847vunU2KiWJdL2zYsSY/i5Tfr0iOgYL5/99w9vmW3df3+/7sFAAAohoNuuOGGG9JDAAAOzOmnvz96R8Ts115PzGe/tiF6x7tx+ukjE/OkvlH1wfFx/s7Vcc+PZ8dPblkV28cOiOGjh0XVoN7Rb0RV/N7ffCBOXfJ2/GTm4nj66drYEqNj8h2Xxz/8j2HRL/3L9Rscp37w0Fj18Gvx6BNvxC13b4iB4/rEwcPe+/Xe827Uzl4YT/7q5fjyB++P78xcHxGjY/JXzorfe//A6BcRu1a9HX916SPx31sGx4U3/WH8+G/GxmEdb3ViXZlsXvN6bKtPfqvuptvnxJr67YkZUDznf2BMjBk5YPdz74MOjWFHnZ94BwAAKKZeLS0t+/lHrQEA6Kg77rgrfnjHXelxXDNlfEyZcmJ6nLSrIV7698fj8r9+NWrTZ2258IK4+7vnxefPGNTm9Qm7alfEvd+fGld9Z2H6aA9jJn8qfvT3H4iPTez/m8n2mP3d/4oPXDc/9eZeHPvJeGX++XFGq9s5Q6wrq3WLn4y6Bbfvft7U0BTnfPaRxDtAMf3gm+fGRz90RGJ24qX/lXgGAACKqa3f0wEAoJM6dT1m70Fx1l/9QaysuTYeeejTcf2Fg5PnY06Pmx78XDz00B/HHddPiHjm2bjqA/8YR055s81v1fUec1T8yb98IRoWXBMPtfXrXXhB3PHQ5Hh6wQ1R86PzWsW6iNi1JeY8WdP67Q4T68prW33ym1YbN+9IPAMAAAD5Y8MOAKAbdWrTrl3eu9Ly8Z+8EPeO/Ej8/GtHxcD0KxkS68pv+cvfj63rZu1+XraqIS794uOJd4BimvL7J8TffOHUxMyGHQAAVAYbdgAA3ahTm3btclCMOeOE+MK/XBXTxToAAACAQhLsAAC6WfdHu/wR6wAAAADaT7ADACiDnhTtxDoAAACAjhHsAADKpCdEO7EOAAAAoOMEOwCAMqrkaCfWAQAAABwYwQ4AoMwqMdqJdQAAAAAHTrADAMhAJUU7sQ4AAACgcwQ7AICMVEK0E+sAAAAAOk+wAwDIUJGjnVgHAAAA0DUEOwCAjBUx2ol1AAAAAF1HsAMAyIEiRTuxDgAAAKBrCXYAADlRhGgn1gEAAAB0PcEOACBH8hztxDoAAACA7iHYAQDkTB6jnVgHAAAA0H0EOwCAHMpTtBPrAAAAALqXYAcAkFN5iHZiHQAAAED3E+wAAHIsy2gn1gEAAACUh2AHAJBzWUQ7sQ4AAACgfAQ7AIACKGe0E+sAAAAAykuwAwAoiHJEO7EOAAAAoPwEOwCAAunOaCfWAQAAAGRDsAMAKJjuiHZiHQAAAEB2BDsAgALqymgn1gEAAABkS7ADACioroh2Yh0AAABA9gQ7AIAC60y0E+sAAAAA8kGwAwAouAOJdmIdAAAAQH4IdgAAFaAj0U6sAwAAAMgXwQ4AoEK0J9qJdQAAAAD5I9gBAFSQ/UU7sQ4AAAAgfwQ7AIAKs69oJ9YBAAAA5I9gBwBQgfYW7dLEOgAAAIDsCXYAABVqf9FOrAMAAADIB8EOAKCCtY52X5110O4fYh0AAABAfgh2AAAVrq1NO7EOAAAAID8EOwCAHmDKPq7GBAAAACBbgh0AAAAAAABkSLADAAAAAACADAl2AAAAAAAAkCHBDgAAAAAAADIk2AEAAAAAAECGBDsAAAAAAADIkGAHAAAAAAAAGRLsAAAAAAAAIEOCHQAAAAAAAGRIsAMAAAAAAIAMCXYAAAAAAACQIcEOAAAAAAAAMiTYAQAAAAAAQIYEOwAAAAAAAMiQYAcAAAAAAAAZEuwAAAAAAAAgQ4IdAAAAAAAAZEiwAwAAAAAAgAwJdgAAAAAAAJAhwQ4AAAAAAAAyJNgBAAAAAABAhgQ7AAAAAAAAyJBgBwAAAAAAABkS7AAAIEdqX38z1lUvTo8BAACACibYAQBAjgwZe0RMPX5KTL/+RuEOAAAAegjBDgAAcmTA8GEx4ebJUXvTk8IdAAAA9BCCHQAA5MzJV16+++fCHQAAAFQ+wQ4AAHKmtGXXmnAHAAAAlUuwAwCAHGq9ZdeacAcAAACVR7ADAIAcamvLrjXhDgAAACqHYAcAADm1ty271oQ7AAAAKL5eLS0tLekhAACV575eF6VHVKChnx8Th5/fGIce0TciIpataohLv/h4+jWggKb8/gnxN184NTE78dL/SjwDAADFZMMOAAAqyMZ7a6P6ixti0Z0bY+uqneljAAAAIIcEOwAAAAAAAMiQKzEBACDHXr7lrlh47T3p8V65EhMqlysxAQCgctmwAwCAnNq2fkO7Y92Y6z4Wlyy4I0659qzdsQ4AAAAoBsEOAABy6q37HkmP9lAKdRd95xsxYuL49DEAAABQAIIdAADk0P6264Q6AAAAqByCHQAA5NDetuuEOgAAAKg8gh0AAORMW9t1Qh0AAABULsEOAABypvV2nVAHAAAAlU+wAwCAHClt1wl1AAAA0HMIdgAAkCPb1m0Q6gAAAKCHEewAACBHRkwcL9QBAABADyPYAQAAAAAAQIYEOwAAAAAAAMiQYAcAAAAAAAAZEuwAAAAAAAAgQ4IdAAAAAAAAZEiwAwAAAAAAgAwJdgAAAAAAAJAhwQ4AAAAAAAAyJNgBAAAAAABAhgQ7AAAAAAAAyJBgBwAAAAAAABkS7AAAAAAAACBDgh0AAAAAAABkSLADAAAAAACADAl2AAAAAAAAkCHBDgAAAAAAADIk2AEAAAAAAECGBDsAAAAAAADIkGAHAAAAAAAAGRLsAAAAAAAAIEOCHQAAAAAAAGRIsAMAAAAAAIAMCXYAAAAAAACQIcEOAAAAAAAAMiTYAQAAAAAAQIYEOwAAAAAAAMiQYAcAAAAAAAAZEuwAAAAAAAAgQ4IdAAAAAAAAZEiwAwAAAAAAgAwJdgAAAAAAAJAhwQ4AAAAAAAAyJNgBAAAAAABAhgQ7AAAAAAAAyJBgBwAAAAAAABkS7AAAAAAAACBDgh0AAAAAAABkSLADAAAAAACADAl2AAAAAAAAkCHBDgAAAAAAADIk2AEAAAAAAECGBDsAAAAAAADIkGAHAAAAAAAAGRLsAAAAAAAAIEOCHQAAAAAAAGRIsAMAAAAAAIAMCXYAAAAAAACQIcEOAAAAAAAAMiTYAQAAAAAAQIYEOwAAAAAAAMiQYAcAAAAAAAAZEuwAAAAAAAAgQ4IdAAAAAAAAZEiwAwAAAAAAgAwJdgAAAAAAAJAhwQ4AAAAAAAAyJNgBAEAF6d13YHoEVIjTTjgsPQIAACqEYAcAABWk/+BxiefRIwckngEAAID8EewAAKCCHdzvoDj1+OHpMVBAR44+NPHcf8ikxDMAAFBcgh0AAFSQAcMmpEfxux85Oj0CCuiYIwclnvsPOTbxDAAAFJdgBwAAFaT/oNHpUZw4fmh6BBTMX141KQ7ud1BiNmD48YlnAACguAQ7AACoIL379I9BYz6WmL3/pBHxmU+MT8yAYrmsjU3ZAcP8dQ0AAJVCsAMAgAoz9Ihz06P4whU2caCovvnl02PUYYckZkPHXh59+9ueBQCASiHYAQBAhRk48sQ4dMQ5idm4IwbFD765Z8gD8u0znxgfV1xyTHocI469ND0CAAAKTLADAIAKNOK4y9Oj+OiHjohvfvn09BjIqVOPHx5/ffWpe3y7znYdAABUHsEOAAAq0IBhR8fQsXtGuys/dZxNOyiAz3xifPzoXy6KIYP6JeYH9R0ao47/vcQMAAAovl4tLS0t6SEAAFAZljz/7WjcNDc9jmWrGuKnTyyJO346P30EZOjU44fHVz4/KT50+qj0UUREjP/wv8fBA0enxwAAQMEJdgAAUMF2NTfG4pnfip3blqWPIn4T7l6fXx9PP78qnpq1Kn0MlMlfXjUpzjxlZJx03LA9rsAsqXrf38aQMa61BQCASiTYAQBAhdvV3BjLXvpum5t2aZsammLj5h3pMdAN+vfvE6MOOyQ93sNBfYdG1Wl/GQNHnpg+AgAAKoRgBwAAPcTaBY9G/eL70mMgx/oPmRRVp/6pazABAKDCCXYAANCDbNuwNNYteiS2rpuVPgJypO+AcTFy4h+6AhMAAHoIwQ4AAHqgbRuWxqaaWdFQ+0y8u3Nj+piCeu2TaxPP7//l4Yln8q//kEkx9MiLYkjVGdG7T//0MQAAUKEEOwAA6OF2bFkdjQ01sXN7ffqIgpl67I2J50ve+UbimfwaMGxC9B80WqQDAIAeqnd6AAAAAAAAAJSPDTsAAIAKcV+vixLPV7ZMTzwDAACQTzbsAAAAAAAAIEOCHQAAAAAAAGRIsAMAAAAAAIAMCXYAAAAAAACQIcEOAAAAAAAAMiTYAQAAAAAAQIYEOwAAAAAAAMiQYAcAAAAAAAAZEuwAAAAAAAAgQ4IdAAAAAAAAZEiwAwAAAAAAgAwJdgAAAAAAAJAhwQ4AAAAAAAAyJNgBAAAAAABAhgQ7AAAAAAAAyJBgBwAAAAAAABkS7AAAAAAAACBDgh0AAAAAAABkSLADAAAAAACADAl2AAAAAAAAkCHBDgAAAAAAADIk2AEAAAAAAECGBDsAAAAAAADIkGAHAAAAAAAAGRLsAAAAAAAAIEOCHQAAQAHs3N4Y29ZvSI8P2KaVtekRAAAAGRHsAAAACuKXn/izePmWuzoV7tZVL47p198Y1Y/8Kn0EAABARnq1tLS0pIcAAADkz7yHfxmvXXFTRERMuHlynHzl5TFg+LDd5/f1uqjV2xFXtkzf/fN11Ytj7u0PRO1NT0ZExOX1Dyf+WAAAALJjww4AAKAgjrv04uh35siIiFh47T3xyGGf3u/GXWmjburxU3bHugk3TxbrAAAAcsSGHQAAQIG03rJrbcLNk2PhtfckZmOu+9juSNea7ToAAIB8EewAAAAKZOf2xnj0gsnR9HJd+qhdJtw8Oc78i6vTYwAAADLkSkwAAIAC6XtI/zj5765Kj9vt5CsvT48AAADImGAHAABQMK2/ZdcRvl0HAACQT4IdAABAwRzolp3tOgAAgHwS7AAAAAqoo1t2tusAAADyS7ADAAAooI5u2dmuAwAAyC/BDgAAoKDau2Vnuw4AACDfBDsAAICCau+Wne06AACAfBPsAAAACmx/W3a26wAAAPJPsAMAACiw/W3Z2a4DAADIP8EOAACg4Pa2ZWe7DgAAoBgEOwAAgILre0j/2Hbm+PTYdh0AAEBBCHYAAAAFd8cdd8Xds5+PnQMjdg58b1b17ctt1wEAABSEYAcAAFBgd9xxV/zwjrtia++IBUe0xIIjWt6bz3wmampq0q8DAACQQ71aWlre+19zAAAAFEop1pUcuuu9/3t+fe94fOSuGHX4yLjt1pujqqrqt38QAAAAuSPYAQAAFFA61u2NaAcAAJB/rsQEAAAomPbGuoiINWvr4ktfvtb1mAAAADlmww4AAKBA9hbrtjRsjrq6NRERMe7oY6N37+Q/n2nTDgAAIL8EOwAAgILYV6x7+805u59Hjhot2gEAABSIKzEBAAAKoL2xLiKibs3qWLb0ndi1a1di7npMAACAfBLsAAAAcq4jsa5EtAMAACgOwQ4AACDHDiTWlYh2AAAAxSDYAQAA5FRnYl2JaAcAAJB/gh0AAEAOdUWsKxHtAAAA8k2wAwAAyJmujHUloh0AAEB+CXYAAAA50h2xrkS0AwAAyCfBDgAAICe6M9aViHYAAAD5I9gBAADkQDliXYloBwAAkC+CHQAAQMbKGetKRDsAAID8EOwAAAAylEWsKxHtAAAA8kGwAwAAyEiWsa5EtAMAAMieYAcAAJCBPMS6EtEOAAAgW4IdAABAmeUp1pWIdgAAANkR7AAAAMooj7GuRLQDAADIhmAHAABQJnmOdSWiHQAAQPkJdgAAAGVQhFhXItoBAACUl2AHAADQzYoU60pEOwAAgPIR7AAAALpREWNdiWgHAABQHoIdAABANylyrCsR7QAAALqfYAcAANANKiHWlYh2AAAA3UuwAwAA6GKVFOtKRDsAAIDuI9gBAAB0oUqMdSWiHQAAQPcQ7AAAALpIJce6EtEOAACg6wl2AAAAXaAnxLoS0Q4AAKBrCXYAAACd1JNiXYloBwAA0HUEOwAAgE7oibGuRLQDAADoGoIdAADAAerJsa5EtAMAAOg8wQ4AAOAAiHW/JdoBAAB0Tq+WlpaW9BAAAIC9E+vaNnLU6Bh39LHRu3fynw0ddfjIuO3Wm6Oqqioxp7y2bt4WWzZvS4+BMhg4eEAcOnhAegwAsJtgBwAA0AFi3b6JdvmyYlFtLJ23KhbNXhaNW5rSx0AZ9R/YL8aeNCaOPunIOPaUseljAKCHE+wAAADaSaxrH9Eue++8uTxeevyN2LimIX0E5MDQUYPirEtPFe4AgN0EOwAAgHYQ6zpGtMvGhrpNMf3BF2PN4vr0EZBDQ0cNik9c9eEYNnJI+ggA6GEEOwAAgP0Q6w6MaFdeKxbVxlM/ft7Vl1Aw/Qf2i/N//0zbdgDQwwl2AAAA+yDWdY5oVx7vvLk8pt49Mz3ebWXdslhVtzxq162MNRtqY86iV9KvAN3gtOM+EKOGjYkxI46MI0aOjSNHjku/stuHLn9fnHbeiekxANBDCHYAAAB7IdZ1DdGue61YVBuP3fZMehwREYtrquPJlx8T6CAnTjvuA/GxMz8V46smpo8iIuKSq861aQcAPVTyfy0BAAAAhbGhblM89ePn0+PY2bwz/nPq7fHd+28Q6yBH5ix6Jb57/w3xn1Nvj22NW9LH8eufvhwb6jalxwBAD3DQDTfccEN6CAAAQMTpp78/ekfE7NdeT8z7HXxwDBk6LOrWrknM2ZPtuu417cEXon5l8jf3N25ZH//n4e/E3HdmJ+ZAfqxYuySqV86Lk485Lfr3O2T3vLnp3Vi5aHVMOrftDTwAoHLZsAMAANiHKVOujmumXJ0ex8BBg+OkU05Lj2lFrOte77y5PJa/WZuY7WzeGT/82fdjae2ixBzIn6W1i+KHP/v+Hpt2G9c0xDtvLk/MAIDKJ9gBAADsh2jXcWJd93vp8TfSo/jJtB+JdVAgS2sXxX//+oH0uM2/vgGAyibYAQAAtINo135iXfdbsag2Nq5pSMwW11THzLnTEjMg/2bOnRaLa6oTM1t2ANDzCHYAAADtJNrtn1hXHkvnrUqP4smXH0uPgIL46TM/To9i6dsr0yMAoIIJdgAAAB0g2u2dWFc+K+evTjyv3bA65ix6JTEDimNp7aJYWbcsMVv+dvIblQBAZRPsAAAAOki025NYVz5NO3bucR3mktqFiWegeN5ZtSDx3LilKbZu3paYAQCVS7ADAAA4AKLdb4l15bWhblN6FLXrXJ0HRbdhc316FFsEOwDoMQQ7AACAAyTaiXV5sbVxa3oEFEz1ynnpEQDQgwh2AAAAndCTo51Ylx8z505Lj4CCWVq7KD0CAHoQwQ4AAKCTemK0E+sAAAC6jmAHAADQBXpStBPrAAAAupZgBwAA0EV6QrQT6wAAALqeYAcAANCFKjnaiXUAAADdQ7ADAADoYpUY7cQ6AACA7iPYAQAAdINKinZiHQAAQPcS7AAAALpJJUQ7sQ4AAKD7CXYAAADdqMjRTqwDAAAoD8EOAACgmxUx2ol1AAAA5SPYAQAAlEGRop1YBwAAUF6CHQAAQJkUIdqJdQAAAOUn2AEAAJRRnqOdWAcAAJANwQ4AAKDM8hjtxDoAAIDsCHYAAAAZyFO0E+sAAACyJdgBAABkJA/RTqwDAADInmAHAACQoSyjnVgHAACQD4IdAABAxrKIdmIdAABAfgh2AAAAOVDOaCfWAQAA5ItgBwAAkBPliHZiHQAAQP4IdgAAADnSndFOrAMAAMgnwQ4AACBnuiPaiXUAAAD5JdgBAADkUFdGO7EOAAAg3wQ7AACAnOqKaCfWAQAA5J9gBwAAkGOdiXZiHQAAQDEIdgAAADl3INFOrAMAACgOwQ4AAKAAOhLtxDoAAIBiEewAAAAKYn/RbuSo0WIdAABAAQl2AAAABbKvaHfM+AlxzPgJYh0AAEDBCHYAAAAFs7do1xaxDgAAIP8EOwAAgAJqT7QT6wAAAIpBsAMAACiofUU7sQ4AAKA4BDsAAIACax3tvjrroN0//vDR9WIdAABAQQh2AAAABbevTTsAAADyT7ADAACoAFMEOwAAgMIS7AAAAAAAACBDgh0AAAAAAABkSLADAAAAAACADAl2AAAAAAAAkCHBDgAAAAAAADIk2AEAAAAAAECGBDsAAAAAAADIkGAHAAAAAAAAGRLsAAAAAAAAIEOCHQAAAAAAAGRIsAMAAAAAAIAMCXYAAAAAAACQIcEOAAAAAAAAMiTYAQAAAAAAQIYEOwAAAAAAAMiQYAcAAAAAAAAZEuwAAAAAAAAgQ4IdAAAAAAAAZEiwAwAAAAAAgAwJdgAAAAAAAJAhwQ4AAAAAAAAyJNgBAAAAAABAhgQ7AAAAKKNt6zfEtvUb0mMAAKAHE+wAAACgjAYMHxZPf+Hr8fItdwl3AABAhGAHAAAA5XfadVNi4bX3xCOHfVq4AwAABDsAAAAot7HnnhmDLjs+IkK4AwAABDsAAADIwmnXTUk8C3cAANBzCXYAAACQgdZbdq0JdwAA0PMIdgAAAJCR9JZda8IdAAD0HIIdAAAAZGRvW3atCXcAAFD5BDsAAADI0L627Forhbv5d/9X9G7clj4GAAAKrFdLS0tLeggAAEDx3NfrovSICrbz4tOi8cRJsav/gPjy965MHwMFdOvf3Jd4/vRffixGHTkiMQMAKpMNOwAAACigvtPmRP95c9NjAACggAQ7AAAAKJidF58WDX/+udj2/rPTRwAAQAG5EhMAAAAy9PItd8XCa+9Jj9s04ebJcfiF58cv734pMXclJlQGV2ICQM9lww4AAAAysm39hnbFugk3T47L6x+OM//i6ug/dEj6GAAAKDjBDgAAADLy1n2PpEcJrUPdgOHD0scAAECFEOwAAAAgA/varhPqAACgZxHsAAAAIANtbdcJdQAA0DMJdgAAAFBm6e06oQ4AAHo2wQ4AAADKrLRdJ9QBAAAh2AEAAEB5bVu/ISJCqAMAAHYT7AAAAKCMBgwfJtQBAAAJgh0AAAAAAABkSLADAAAAAACADAl2AAAAAAAAkCHBDgAAAAAAADIk2AEAAAAAAECGBDsAAAAAAADIkGAHAAAAAAAAGRLsAAAAAAAAIEOCHQAAAAAAAGRIsAMAAAAAAIAMCXYAAAAAAACQIcEOAAAAAAAAMiTYAQAAAAAAQIYEOwAAAAAAAMiQYAcAAAAAAAAZEuwAAAAAAAAgQ4IdAAAAAAAAZEiwAwAAAAAAgAwJdgAAAAAAAJAhwQ4AAAAAAAAyJNgBAAAAAABAhgQ7AAAAAAAAyJBgBwAAAAAAABkS7AAAAAAAACBDgh0AAAAAAABkSLADAAAAAACADAl2AAAAAAAAkCHBDgAAAAAAADIk2AEAAAAAAECGBDsAAAAAAADIkGAHAAAAAAAAGRLsAAAAAAAAIEOCHQAAAAAAAGRIsAMAAAAAAIAMCXYAAAAAAACQIcEOAAAAAAAAMiTYAQAAAAAAQIYEOwAAAAAAAMiQYAcAAAAAAAAZEuwAAAAAAAAgQ4IdAAAAAAAAZEiwAwAAAAAAgAwJdgAAAAAAAJAhwQ4AAAAAAAAyJNgBAAAAAABAhgQ7AAAAAAAAyJBgBwAAAAAAABkS7AAAAAAAACBDgh0AAAAAAABkSLADAAAAAACADAl2AAAAAAAAkCHBDgAAAAAAADIk2AEAAAAAAECGBDsAAAAAAADIkGAHAAAAAAAAGRLsAAAAAAAAIEOCHQAAAAAAAGRIsAMAAAAAAIAMCXYAAABQcEePOS49AgAACkSwAwAAgIKbeOSJ6RFQMOdOujg9AgB6EMEOAAAACqTfwX3Tozjk4AHpEVAwh/Y/ND0CAHoQwQ4AAAAKZNjIIelRTDjKhh0U3fHjTkmPYtSRI9IjAKBCCXYAAABQMGNPGZN4Hj28KvEMFM+4UccknkeNPyzxDABUNsEOAAAACmb8KUclngf0Hxif/chViRlQHJec+TsxoP/AxOzIiaMTzwBAZRPsAAAAoGDGTkxu2EVEnHnCh9IjoCAuPP3j6VFMOG1cegQAVDDBDgAAAArm0MED4pQLJiRmA/oPjGt//+uJGZB/1/zuX8XQgcMTs4lnjWvze5UAQOUS7AAAAKCATr/gpPQoThw3ydWYUCCXnffZeN+EM9Pj+OAn3pceAQAVTrADAACAAjp08ID40OV7/qb+Be+7JP7k0v+ZHgM589mPXBUfP/uy9DjO+MTJcejgAekxAFDherW0tLSkhwAAAEAx/OLuZ2L5m7XpcaysWxa/eP6hmLPolfQRkKGjxxwXv3/h52J81cT0UYwaf1h8+suXpMcAQA8g2AEAAECBNe3YGY/dMT3WLK5PH8XO5p3x1pLX460lc2Lm3GnpY6CMzp10cZx8zGlx8jHvi759+qaPo//AfvHHX//d6HfwnmcAQOUT7AAAAKDgtm7eFk/8eEab0a5kW+OW2LJ9S9SsW5E+ArpR1YijYuAhA2NA/4Hpo91GjT8sLvrM2TFs5JD0EQDQQwh2AAAAUAGaduyMF6fOiTefXZg+AnJs4lnj4sOXnWmzDgB6OMEOAAAAKsg7by6Plx5/IzauaUgfATkydNSgOOvSU+PYU8amjwCAHkiwAwAAgAo075V34vXp84S7CjHkez/c/fNNf3NN4oxiGTpqUJx0zrFx4pnH2aoDAHYT7AAAAKCCbajbFMsX1MS6mg3RuK0pNtdtEfEKSLArpqGjBsXgkQOj/4B+MaJqWIw9vsp36gCANgl2AAAAADl3X6+Ldv/8ypbpiTMAAIqvd3oAAAAAAAAAlI9gBwAAAAAAABkS7AAAAAAAACBDgh0AAAAAAABkSLADAAAAAACADAl2AAAAAAAAkCHBDgAAAAAAADIk2AEAAAAAAECGBDsAAAAAAADIkGAHAAAAAAAAGRLsAAAAAAAAIEOCHQAAAAAAAGRIsAMAAAAAAIAMCXYAAAAAAACQIcEOAAAAAAAAMiTYAQAAAAAAQIYEOwAAAAAAAMiQYAcAAAAAAAAZEuwAAAAAAAAgQ4IdAAAAAAAAZEiwAwAAAAAAgAwJdgAAAAAAAJAhwQ4AAAAAAAAyJNgBAAAAAABAhgQ7AAAAAAAAyJBgBwAAAAAAABkS7AAAAAAy9sQX/y6Wz3w5Pe6QddWLY+aNN8fO7Y3pIwAAck6wAwAAAMjY2EvPjxnnXR8/v/xLHQ5366oXx/Trb4ypx0+J4SccG30P6Z9+BQCAnOvV0tLSkh4CAAAAUD47tzfGoxdMjqaX6yIiYtBlx8dp102JseeeGRER9/W6aPe7V7ZMj/hNqJt7+wNRe9OTERHR78yRcdmz9wh2AAAFZMMOAAAAIGN9D+kfJ//dVbufGx5dsNeNu9YbdaVYFxFx8t9dJdYBABSUDTsAAACAHEhv2XWE7ToAgGKzYQcAAACQA+ktu46wXQcAUGyCHQAAAEBOHHfpxdHvzJHp8T71O3NkHHfpxekxAAAFItgBAAAA5MSBbNnZrgMAKD7BDgAAACBHOrJlZ7sOAKAyCHYAAAAAOdKRLTvbdQAAlUGwAwAAAMiZ9mzZ2a4DAKgcgh0AAABAzrRny852HQBA5RDsAAAAAHJoX1t2tusAACqLYAcAAACQQ/vasrNdBwBQWQQ7AAAAgJxqa8vOdh0AQOUR7AAAAAByqu8h/ePIay5LzGzXAQBUHsEOAAAAIKdqamriXx99KHYOfO+5z2nDbNcBAFQgwQ4AAAAgh2pqauJLX742ltWviwVHtERExNsHN0bdhvXpVwEAKDjBDgAAACBnSrFuzdq6iIh4Yeiu2DY84te9tsSXvnxt1NTUpP8QAAAKrFdLS8t7/4gWAAAAAJlLx7qSkc0RdX3e+/mow0fGbbfeHFVVVYl3AAAoJsEOAAAAICf2FuvaItoBAFQOV2ICAAAA5MC+Yt2G9fWxa9euxGzN2jrXYwIAVAjBDgAAACBj+4p1a1bXxMIFb8eype+IdgAAFUqwAwAAAMjQ/mLdsiXvRERE3ZrVoh0AQIUS7AAAAAAy0t5YVyLaAQBUJsEOAAAAIAMdjXUloh0AQOUR7AAAAADK7EBjXYloBwBQWQQ7AAAAgDLqbKwrEe0AACqHYAcAAABQJl0V60pEOwCAyiDYAQAAAJRBV8e6EtEOAKD4BDsAAACAbtZdsa5EtAMAKDbBDgAAAKAbdXesKxHtAACKS7ADAAAA6CblinUloh0AQDEJdgAAAADdoNyxrkS0AwAoHsEOAAAAoItlFetKRDsAgGIR7AAAAAC6UNaxrkS0AwAoDsEOAAAAoIvkJdaViHYAAMUg2AEAAAB0gbzFuhLRDgAg/wQ7AAAAgE7Ka6wrEe0AAPJNsAMAAADohLzHuhLRDgAgvwQ7AAAAgANUlFhXItoBAOSTYAcAAABwAIoW60pEOwCA/BHsAAAAADqoqLGuRLQDAMgXwQ4AAACgA4oe60pEOwCA/BDsAAAAANqpUmJdiWgHAJAPgh0AAABAO1RarCsR7QAAsifYAQAAAOxHpca6EtEOACBbgh0AAADAPlR6rCsR7QAAsiPYAQAAAOxFT4l1JaIdAEA2BDsAAACANvS0WFci2gEAlJ9gBwAAAJDSU2NdiWgHAFBegh0AAABAKz091pWIdgAA5SPYAQAAAPyGWJck2gEAlEevlpaWlvQQAAAAoKcR6/Zu5KjRMe7oY6N37+Q/+z3q8JFx2603R1VVVWJO91u7fmvMX1of1cs3xNqNjVG7YXv6FaCbHTdmUIwbNSiOPXJojBszJAYPPDj9CkC7CXYAAABAjyfW7Z9olw9zF66Nn89cItBBDp1z4sj46FlHx+HDD00fAeyXYAcAAAD0aGJd+4l22Vm4vD4enLZIqIMC+Mj7quLiM8fZuAM6RLADAAAAeiyxruNEu/J7YtbieOyF5ekxkGMD+/eJL//epDhq9JD0EUCbBDsAAACgRxLrDpxoVx47mprj3l++FXOWbEgf7da4rSHqViyInU0276DcBh82JoaOHBt9+vZLH+12zadOikkTDk+PAfYg2AEAAAA9jljXeaJd97v9kTl7jXUrFrwSc59/NBbPnZE+AsrsnP/xp3HsqRfE0JFHpo8iRDugnZJ/RwUAAADQAzz33Iw2Y11j43axrp3q1qyOxu17bnWtWVsXzz0nInXWE7MWtxnrNtatjF/e9f/Eo//3OrEOcmLWL26PH//T52P20/8ZzTub0sdx31PVsXb91vQYIOGgG2644Yb0EAAAAKCSnXLKydE7Ima/9npi3qdP3xgydFjUrV2TmLOnk045LQ4dOCg9jmumXB2f//zn0mM6YOHy+rj3yYXpcaxY8Eo8+P3/GRvW+p4d5NHKha/G+jVLY8z4U6Nf/wG7503Nu2Lh8g1x1kmjo89BdmiAtvlPBwAAAKBHmjLl6rhmytXpcQwcNDhOOuW09JhWTjrltBg4aHB6HNdMuTqmtPHvKR3z4LRF6VGsWPBKPPp/r0uPgZxZPHdGPH73t6JxW0NiXrthe7z4Zk1iBtCaYAcAAAD0WKJdx4l13WvuwrVRuyF51ejGupViHRTImmXzYtZjP9zjeszHX1weO5qaEzOAEsEOAAAA6NFEu/YT67rfz2cuSY/i+cf+b3oE5NxbLzwWy+e/mJhtaWy2ZQfslWAHAAAA9Hii3f6Jdd1v7fqte2zXrVjwSiyeOyMxA4ph9rT799iym/FGbeIZoESwAwAAABDt9kmsK4/5S+vTo5j7/KPpEVAQa5bNi9rFbyRmtRu2x+YtOxIzgBDsAAAAAH5LtNuTWFc+1cs3JJ4btzXYroOCWzTn2fQoltVuSo8ABDsAAACA1kS73xLryuud2obEc92KBYlnoHjeeuGx9Cg2NDSmRwCCHQAAAECaaCfWZWFLY3PieWdT8nt2QDE1bkvGeIC2CHYAAAAAbejJ0U6sy4etm/f8ph1QPI1bk1dgrlwr4AF7EuwAAAAA9qInRjuxLj8aNqxNj4AKsC21TQsQgh0AAADAvvWkaCfWAQBkQ7ADAAAA2I+eEO3EOgCA7Ah2AAAAAO1QydFOrAMAyJZgBwAAANBOlRjtxDoAgOwJdgAAAAAdUEnRTqwDAMgHwQ4AAACggyoh2ol1AAD5IdgBAAAAHIAiRzuxDgAgXwQ7AAAAgANUxGgn1gEA5I9gBwAAANAJRYp2Yh0AQD4JdgAAAACdVIRoJ9YBAOSXYAcAAADQBfIc7cQ6AIB8E+wAAAAAukgeo51YBwCQf4IdAAAAQBfKU7QT6wAAikGwAwAAAOhieYh2Yh0AQHEIdgAAAADdIMtoJ9YBABSLYAcAAADQTbKIdmIdAEDxCHYAAAAA3aic0U6sAwAoJsEOAAAAoJuVI9qJdQAAxSXYAQAAAJRBd0Y7sQ4AoNgEOwAAAIAy6Y5oJ9YBABSfYAcAAABQRl0Z7cQ6AIDKINgBAAAAlFlXRDuxDgCgcgh2AAAAABnoTLQT6wAAKotgBwAAAJCRA4l2Yh0AQOUR7AAAAAAy1JFoJ9YBAFQmwQ4AAAAgY+2JdmIdAEDlEuwAAAAAcmBf0e70M88R6wAAKphgBwAAAJATe4t2ffr0SY/EOgCACiLYAQAAAOTI3qJda2IdAEBlEewAAAAAcmZf0U6sAwCoPIIdAAAAQA61jnZfnXXQ7h9iHQBA5RHsAAAAAHJqX5t2AABUDsEOAAAAIMds1AEAVD7BDgAAAAAAADIk2AEAAAAAAECGBDsAAAAAAADIkGAHAAAAAAAAGRLsAAAAAAAAIEOCHQAAAAAAAGRIsAMAAAAAAIAMCXYAAAAAAACQIcEOAAAAAAAAMiTYAQAAAAAAQIYEOwAAAAAAAMiQYAcAAAAAAAAZEuwAAAAAAAAgQ4IdAAAAAAAAZEiwAwAAAAAAgAwJdgAAAAAAAJAhwQ4AAAAAAAAyJNgBAAAAAABAhgQ7AAAAAAAAyJBgBwAAAAAAABkS7AAAAAAAACBDgh0AAAAAAABkSLADAAAAAACADAl2AAAAANAFnvji38W8h38ZO7c3po8AAPZJsAMAAACALnDiVVfEa1fcFI9eMFm4AwA6RLADAAAAgC4w9twzY9Blx0fTy3XCHQDQIYIdAAAAAHSR066bsvvnwh0A0F6CHQAAAAB0kdKWXWvCHQCwP4IdAAAAAHSh1lt2rQl3AMDeCHYAAAAA0IXa2rJrTbgDANIEOwAAAADoYnvbsmstHe767GxKvwIA9BC9WlpaWtJDAAAAAPLjvl4XpUdUoHePGhhrPnJhrDpxUjT37RfPP/bDeHXa/enXgIL53NfvjaEjj9z9fNoxw+JPLz8t8Q6ADTsAAAAAyIGDVmyJqrsfi9NvuTn6b9uSPgYAKphgBwAAAAA5Uf/p8+KNP/uzaBwwMH0EAFQwV2ICAAAAQBdbV704ph6//+/YlUy4eXL8ZNPIRKhzJSZUBldiAu1hww4AAAAAutjc2x9Ij9o04ebJcXn9w3HmX1xtqw4AejDBDgAAAAC60LrqxVF705PpcULrUDdg+LD0MQDQwwh2AAAAANCF9rVdJ9QBAG0R7AAAAACgi+xtu06oAwD2RbADAAAAgC6S3q4T6gCA9hDsAAAAAKALtN6uE+oAgI4Q7AAAAACgC8y9/QGhDgA4IIIdAAAAAHSBs//ufwp1AMABEewAAAAAoAsIdQDAgRLsAAAAAAAAIEOCHQAAAAAAAGRIsAMAAAAAAIAMCXYAAAAAAACQIcEOAAAAAAAAMiTYAQAAAAAAQIYEOwAAAAAAAMiQYAcAAAAAAAAZEuwAAAAAAAAgQ4IdAAAAAAAAZEiwAwAAAAAAgAwJdgAAAAAAAJAhwQ4AAAAAAAAyJNgBAAAAAABAhgQ7AAAAAAAAyJBgBwAAAAAAABkS7AAAAAAAACBDgh0AAAAAAABkSLADAAAAAACADAl2AAAAAAAAkCHBDgAAAAAAADIk2AEAAAAAAECGBDsAAAAAAADIkGAHAAAAAAAAGRLsAAAAAAAAIEOCHQAAAAAAAGRIsAMAAAAAAIAMCXYAAAAAAACQIcEOAAAAAAAAMiTYAQAAAAAAQIYEOwAAAAAAAMiQYAcAAAAAAAAZEuwAAAAAAAAgQ4IdAAAAAAAAZEiwAwAAAAAAgAwJdgAAAAAAAJAhwQ4AAAAAAAAyJNgBAAAAAABAhgQ7AAAAAAAAyJBgBwAAAAAAABkS7AAAAAAAACBDgh0AAAAAAABkSLADAAAAAACADAl2AAAAAAAAkCHBDgAAAAAAADIk2AEAAAAAAECGBDsAAAAAAADIkGAHAAAAAAAAGRLsAAAAAAAAIEOCHQAAAAAAAGRIsAMAAAAAAIAMCXYAAAAAAACQIcEOAAAAAAAAMiTYAQAAAAAAQIYEOwAAAAAAAMiQYAcAAAAAAAAZEuwAAAAAAAAgQ4IdAAAAAOTQwYccmh4BABVKsAMAAACAHBp2+Nj0CCigPv36J54njh2WeAYIwQ4AAAAAALrPwCEj0iOAPQh2AAAAAJADpx2T3Lo5fOyJiWegeMZPOi89imGDkht3ACHYAQAAAEA+HDVqUOJ54JARMWqcaAdFNn7Sh9OjGHWY71MCexLsAAAAACAHxh8xJD2KSedenh4BBXL0Seckngf27xOHDxfsgD0JdgAAAACQAxPGHhYD+/dJzI477UJbdlBQF1zx1eg/ILk5e/YJhyeeAUoEOwAAAADIiUvPHpt47tO3X3zwE19IzID8GzXuxJjw/o+kx3HxmePSI4CIiOjV0tLSkh4CAAAAAOW3o6k5brjjhdjS2JyYz535SDz70L8nZkB+fe7r98bQkUcmZh95X1VcftHExAy6W33D2tjR3Jge72HEoFHRr8/B6TFlJNgBAAAAQI78+tXl8eCzi9Nj0Q4KYNS4E+O8y74cY44+JTEf2L9PfP3zZ8bggYIIXacU41asXxw7dm6P2k3LIyKiuu7V9KsdMuLQqhg+YHT07zsgRg85KoYcMiwGHzJM1Otmgh0AAAAA5Mztj8yJOUs2pMexeO5z8cu7vpUeAzkwftJ5cf6nvxoDh4xIH8U1nzopJk3w/ToOXH3D2li5fkms2bwyajYtjRUbq9OvlEUp5h094vg4fFBVHDF8nIjXRQQ7AAAAAMiZHU3NcdvDc2JRbUP6KBq3NcTC1562bQc5MWrciXHGxX8U4yd9OH0UERGf+uDY+Pg549Nj2KdSoFtaXx2L6ubEtp17/vdBXhw1dGKMH3FSHDX8WAGvEwQ7AAAAAMihteu3xu0/ezNqN2xPH0VERPPOpqhbVR0178yJHdu3po+BbjZ89NExetxJe3yrrjXfraMjlqytjoVr5sY7696MdVtr0seFMXHk6XHC6PfF+FEnxKD+Q9LH7IVgBwAAAAA5ta9NOyDfPv+xiXHWKVXpMSSUIt3cmlmd2qLbXL81du5ojo1rGqKpsTl2bN8Za5evT7yzfcuOmP3E/IiIOHLi4XH0pDGJ8/6HHhwjjxwaERHDRg+Kvgf3iSEjBkaffgcl3uuIo4ZOjPcfdZ541w6CHQAAAADk3K9fXR4PPrs4PQZyaMywQ+IzFx8XE8Yelj6CiIhoaNwUry19Pt6qfanDm3Tbt+yITXVbYsPqhqhbuTFWLVwb82YtTb/WpUpx7/Cxw2PQsENi5NhhMfiwQ9Ov7depVefFqUeeHcccbuu0LYIdAAAAABTA5i07YtrLy+Lp1zv2m7vkxzl//f+mRxERMetf/yE9ooAG9u8TV350YkyacHj6CCJ+s033xsoX442aGemjvdq+ZUfUrdgYqxevi3fmrOr2ONcR511xWhx1/Kg4fNywOKyq/dtzIw6titPHXhDvH3eO7921ItgBAAAAQIFs3rIj5i+tjzcW1cWcJRvSx+SYYFd5xgw7JE4aNyyOPXKoUMdeza+ZE9MXPNLubbrVS+pj9ZL1Me+FJbkKdPvz0clnxRHHjYiqCSPjkIHtC3Fnj7skzpnwUddlCnYAAAAAUGybt+yITVsa02Ny6Lkxl6dHERHx4dpH0iMK4KjRAgP71pFQt3pJfSx/e3W8Pm1hrKxemz4unDM+fkKccu74dsc74U6wAwAAAAAoi/t6XbT751e2TE+cAZWjvaFu+5YdseCl5YXbpOuoj04+KyZ+4KgYfcz+v+vYk8OdYAcAAAAAUAaCHVS2JWur41dv3b/fULd6SX288eyimPHQnPRRRTvxnKPjfRdNjKMnjdnv1t0Fx10eHzzu4h71jTvBDgAAAACgDAQ7qEwNjZvil3MeiOq6V9NHCcvnrYmZ/z2norfp2utTXzo3Jl1w3D7D3YC+g+KjJ3wmTht3dvqoIgl2AAAAAABlINhBZWlq3hGvLZsVU+fdnz7arbnp3Vg4e0U899PXK+LbdF2tPeHuqKET43dO+3wcNujw9FFFEewAAAAAAMpAsIPKUbNheTz6+l37vP5y+bw18avbZwl17dCecFfp12QKdgAAAAAAZSDYQfE1Ne+IFxZNi2cXPZI+2m31kvqYfv9sV18egE//1UVxynnjo0+/g9JHEREx4tCq+IMP/M+K3LYT7AAAAAAAykCwg2Krb1gbP59zb6zYWJ0+ioiI7Vt2xHM/fT1mPDQnfUQHHDnx8PjI5z4Qx77/yPTRbpec+Edx9rEXpseFJtgBAAAAAJSBYAfFNWfZi/GzuXemx7vNm7U07r9xanpMJ5zx8RPioj86IwYfdmj6KCIiJo48PX7vjKsq5opMwQ4AAAAAoAwEOyiepuYd8fgbP4k3amakjyIiYnP91ph+/+yY/cT89BFd5I++cUmceM7R6XFERAzoOyj+6KyvRNWwsemjwhHsAAAAAADKQLCDYtnfFZi26spnf9t2vzvpC3HauLPT40IR7AAAAAAAykCwg+Ko2bA87n/pB7FtZ0P6KLZv2RFT737RVl0G/uR/fXKv37Y7e9wlccmkK9LjwhDsAAAAAADKQLCDYphfMycefPXW9DgiIlYvqY+f3fJcrKxemz6iTD46+az40GWTok+/g9JHcdTQiXHlB/+ikN+1650eAAAAAAAA9EQvvvPMXmPd69MWxq1feUisy9hT97wUD3736dhcvzV9FCs2Vsd9L9wSDY2b0ke5J9gBAAAAAAA93tS5D8XUefenx9Hc9G5MvfvFePjfbMbmxbxZS+OBG5+M1Uvq00exYmN1/PDZ/x31DcUKq4IdAAAAAADQo02d+1C8uGxqehyb67fGL344M2Y8NCd9RMZWVq+NW7/yULzz2sr0UWzb2RB3P/+dQkU7wQ4AAAAAAOix9hXrHrjxyZj9xPz0ETnyo2/9Ml76xVvpceGinWAHAAAAANAFXr7lrlg+8+X0uEPWVS+O6dffGJtW1qaPgG6wt1hXX7MpHrjxSd+rK4jHbptZ+Ggn2AEAAAAAdIFjLrkgZpx3ffz88i91ONyVQt3U46dERMSQI8ekXwG62N5i3fJ5a+Lf/+y/xLqCeey2mTH17hejuendxLwo0U6wAwAAAADoAiMmjo8x130sGh5d0O5w1zrU1d70ZERETPrTP0y/BnSxF995Zq+x7vbrH02PKYgZD82JX/xwZpvR7iev/Ec0Ne9IzPNEsAMAAAAA6CKtY9u+wl1boS4iYsx1H4sRE8cn3gW61vyaOTF13v3psVhXIWY/Mb/NaLdua03c98ItuY12vVpaWlrSQwAAAAAADsz0629MRLiOuGTBHYIddKOaDcvjjpn/mB7H6iX1cetXHkqPKbCPTj4rzv/M+9LjOLXqvLjs9M+nx5mzYQcAAAAA0IUO9EpL23XQveob1sb9L/0gPY7N9VvjZ7c8lx5TcE/d81K89Iu30uN4o2ZG/Hr+4+lx5gQ7AAAAAIAuVPqWXUcdaOgD9q+peUf8fM69sW1nQ2K+uX5rPHDjk7Gyem1iTmV47LaZ8fq0helxPLvokZhfMyc9zpRgBwAAAADQxToa32zXQfd6/I2fxIqN1YlZc9O7Mf3+2WJdhXv436bH8nlr0uP4xdx7o74hP/+/F+wAAAAAALpYR7fsOhr4gPabs+zFeKNmRnocv/jhzJj9xPz0mAp0+/WPRn3NpsRs286G+Mkr/xFNzTsS86wIdgAAAAAA3aC9Ec52HXSf+oa18bO5d6bH8dIv3hLrepiHvjc9tm9Jxrl1W2vi8Td+kphlRbADAAAAAOgG7d2ya2/YAzqmqXlH/OSV/0iPY/m8NfHYbTPTYyrcyuq1MfXuF9PjeKNmRi6+ZyfYAQAAAAB0k/3FONt10H1eWDQt1m2tScw212+NX90+KzGj55j9xPx4fdrC9Dh+MffeaGhMXplZboIdAAAAAEA32d+W3f6CHnBgajYsj2cXPZIex/T7Z8fK6rXpMT3Iw/82PVYvqU/Mtu1siF/OeSAxKzfBDgAAAACgG+0tytmug+7R1LwjHn39rvQ4Xp+20HfriIiIn93yXDQ3vZuYVde9GnOW7XllZrkIdgAAAAAA3WhvW3Z7C3lA57R1FWZ9zaZ4+N+mJ2b0XCur18a0+15Jj+Op+Q9GU/OO9LgsBDsAAAAAgG52/Od/L/Fsuw66R33D2j2uwmxuejem3p3d5hT5NOOhObF83prEbNvOhnj8jZ8kZuUi2AEAAAAAdKPGxsb43o/uirqqlt0z23XQPZ56+7/To3hzxuKYN2tpegzxq9tn7XE15hs1M6Jmw/LErBwEOwAAAACAbtLY2Bh//81vxYznX4hXRr0X7NYf1zeaBvZPvwp00vyaOVFd92pitrl+q6sw2auV1Wvj1Sf3/K7h1LceTI+6nWAHAAAAANANWse6iIjq/i1RV9USLw7aEV/68rVRU5P8xhbQOdMXJK/CjIh44edvpkeQ8NhtM6O+ZlNitmJjdcyvmZOYdTfBDgAAAACgi6VjXcmTR+yK6v4tsWZtnWgHXejFd56JdVuTfz0tn7cmZjxU3uhCMc14eM8/T9oKwN1JsAMAAAAA6EJ7i3UREXV9fvtz0Q66RlPzjpix6LHErLnp3Zj533tGGGjL7Cfmx/J5axKzdVtr4sV3nknMupNgBwAAAADQRfYV6zasr49du3YlZqIddN5ry2bFtp0NidnC2Sti3qyliRnsy8z/nhPNTe8mZjMWPRZNzTsSs+4i2AEAAAAAdIF9xbo1q2ti4YK3Y9nSd0Q76EJ726577qevJ2awP/NmLY2Fs1ckZtt2NsRry2YlZt1FsAMAAAAA6KT9xbplS96JiIi6NatFO+hCe9uuW1m9NjGD9njup6/vsWX36vJnE8/dRbADAAAAAOiE9sa6EtEOuk46ptiuozNWVq/dY8tu3daamF/T/d9DFOwAAAAAAA5QR2NdiWgHnTe/Zk6s25r8a8V2HZ3VVvCdvuCR9KjLCXYAAAAAAAfgQGNdiWgHnfPC4qfSo3h9enV6BB2ysnptLJ+3JjFbt7UmajYsT8y6mmAHAAAAANBBnY11JaIdHJj6hrWxYmMyzi2ftybmzVqamMGBmPnfe16B+ebKl9OjLiXYAQAAAAB0QFfFuhLRDjpu9tLn0qN47ekF6REckHmzlkZ9zabE7MVlU6OpeUdi1pUEOwAAAACAdurqWFci2kHHzK2ZlXjeXL81Zj8xPzGDznhr5pL0KOat2vP7dl1FsAMAAAAAaIfuinUloh20z/yaObFtZ0Ny9oKrMOlaT93zUjQ3vZuYvbZiRuK5Kwl2AAAAAAD70d2xrkS0g/1bsPqN9Chen7YwPYJOW/ZWbeJ5xcbqaGhMXpXZVQQ7AAAAAIB9KFesKxHtYO+amnfEGzXJLafl89bEyuq1iRl0hTdnLk6P4rWlz6dHXUKwAwAAAADYi3LHuhLRDtq2eO2e36lb+mZyCwq6yuwn5sf2LTsSs7dqX0o8dxXBDgAAAACgDVnFuhLRDvaUvg6zuendeOqe7gkoEBFRs7Au8bxua023XIvZq6WlpSU9BAAAAADoyRobG+Mbf3VNPDZtRmxYuiTWNZVO+kX/IUOicVPyN3C708hRo2Pc0VVRv+DNWLJx97+QPU1+KGp+9OkYk55DBfneE1+LbTsbdj8vn7cmbr/+0cQ70JXO+PgJcdlfnJ+Y/e6kL8Rp485OzDrLhh0AAAAAQCuN25bGlEs/ELfcdm8srG4d6yIimsoa66K0abdkaWzfuo9YBz1AzYbliVgXEbF68brEM3S1tq7FnL/69cRzVxDsAAAAAAB+o3Hd7LjszDPjvmfeip0xLMYce3KcfMZ5cdY5H45xxxybfr1s6tauj7qdETHihHj/OR+Os1r9+J3LPh2rVq2KFtt1VLhFa95Kj+L1aQvTI+hy6Wsxq+teTTx3BcEOAAAAACAiGhvXxJ9e8Qcx9e11EYPHxQlnnBxHHT48Du3XqyzfrNufdyOiX9O6OMg37eihFq97O/G8uX5rrKxem5hBd1i1aM9NzpoNy9OjThHsAAAAAIAer7GxMb7x51fFY79eHNFvTEyYcFQM7tcrIiIXsa6kafO6WLb0ndgl2tHDNDXviBUbqxOzVdXlvZ6Wnmv+C0vTo1ixfnF61CmCHQAAAADQozU2Nsbff/Mb8fSzr8Sm6BeDxozKZawrqVuzWrSjx1nXsCY9ihUL9pxBd1hZvTY2129NzJauW5B47izBDgAAAADosd6Ldd+KGc//OhrqN0fE4Bgx/NA4KKexrqRuzep45cWZ8dIrC6K2flM0vtsSIdpRwdraZprx0Jz0CLpN3fINieeu/o6dYAcAAAAA9Ei/jXUvRLzbFI3bmiKib/TpnY9v1rXLzrWxovqNeGP+itjcJNpRudLbTOltJ+hubX3Hrr6h676hKNgBAAAAAD1OItZFRLzbHDubIqJ//9iyvrYYse43hgw6JPpuXhbzF9bEVpt2VKiVGxcmntPbTtDdVi3cM87VNdSmRwdMsAMAAAAAepQ9Yl1rzZujtkCxLiJiU8P2OOSQPhGb18b6Lc2756IdlaKpeUds29mQmDVs2J54hu42b9bSaG56NzHbtL3rwrFgBwAAAAD0GHuNdQf1iaaDIqK5PjkviM3bmyNiS6zbuCVa/3ayaEclWNewJj2KtcvXp0fQ7Tat25J4Tl/V2hmCHQAAAADQI+w11kXEmrpNsTm5OFFIO9evjOZduxIz0Y6iq9u857WDMx6akx5Bt9u4JrnpuX7b6sRzZwh2AAAAAEDF22esW10Ty5YsT4+LqXFjrFz6TuwS7aggjc3J6y+3b9mReIZySV/Fum5r1/1nqmAHAAAAAFS0/ce6Yn2zbn/q16yOZaIdFSR97eC2zY2JZyiXtq5irW9Ymx4dEMEOAAAAAKhYPS3WldSJdlSwrZsEO7LR1nbnjuau+fNRsAMAAAAAKlJPjXUloh15sH379ti+PXmNYEdV172aeN66sXO/Hhyo2U/MT4/a/MbigRDsAAAAAICK09NjXYloR9a2b98eF1xwQTz88MOdDnclO7bvTI8gM+lvLB4owQ4AAAAAqChiXZJoR5aGDx8ekydPjiuuuOKAwl1T855XELb1HTEol/qaTelRlxDsAAAAAICKIda1TbQjS1deeWVERLz88ssdDnfrGtakR5ArS9ctSI8OiGAHAAAAAFQEsW7fRDuyMnz48Lj55pt3Px9IuINKJ9gBAAAAAIUn1rWPaEdWSlt2rR1ouJvx0Jz0CMpm66bG9KhLCHYAAAAAQKGJdR0j2pGF9JZdawca7iALWzd2z5+fgh0AAAAAUFhi3YER7chCW1t2rQl39GSCHQAAAABQSGJd54h2lNu+tuxaax3uHvjJ/bGzqTn9ClScXi0tLS3pIQAAAABA3k2f/kz83d9/Kz2O5ubmqJ73ZmzZ0pA+og0Tjj8phg0/bPfzS7OeS5xD1o6YMDI+/Jn3xYQzjoq+/frEt37nh+lXoGz+6BuXxInnHL37eeLI0+OzZ/9Z4p0DYcMOAAAAACikiy66MK6ZcnV6HH369Injjj8xBg4clD4iZdwxxyZiHeTRqoV18cCNT8asR+amj6BiCHYAAAAAQGFNmXJ1m9GuX7+DRbv9GHfMsTFqdFV6DLlz3qdPi6/e9tk4/w/enz6CiiHYAQAAAACFJtp13N5i3Xkf+mBs3749Wlpa/PCjW35cd9116T/t9uq6666L515+Ji65+uw47Igh6WOoKIIdAAAAAFB4ol377SvW/eO3/1f0798/fQRdorq6Om666ab0eA/XXXddLFiwIL7zne/E+GOPSR/HkRMPT4+gbIaN7p7/PhHsAAAAAICKINrtn1hHlm6//fb0KKF1qJs4cWL6eLejJ41Jj6Bs+h7cJz3qEoIdAAAAAFAxRLu9E+vI0r6269ob6iCPhg0YkR4dEMEOAAAAAKgoot2exDqy1tZ2XXtCXdWwsekRZCq9YTdkwGGJ5wMl2AEAAAAAFUe0+y2xjqylt+vaE+r25ajjR6VHUDb/f3v3FiPled9x/J+yB3aX2QOzDDDeE2DGszHLYjZhWbPUxrEXOxCfSCyTKpFrWZZTWZUiVblwpV62UqSqF5WqqDd1laq9iJy0alIpKIkb1YnjNI6DnAPB8RkRm0BjDDaHENGL2Ij32V287M7sYebzuXt/j7nz7M1Xz/u259vSqSIEOwAAAACgJol2Yh2Lw/u362Yb6loba/+3ytJVyE3+Gzsbgh0AAAAAULPqOdqJdSwGR44ciYiYVah7X0/nxsxz15ra/d2yuI3vG06naG6szN9SwQ4AAAAAqGn1GO3EOhaLnp6eWYe69y1vbM08p98Qg4WUa+lIp1kR7AAAAACAmldP0U6so9as6ejNPOeLlQkkcLWm+n5ibnll/n8U7AAAAACAulAP0U6soxZ1tHSlU/SUCukEVdfW2ZJ57u2c/c3RlGAHAAAAANSNWo52Yh21qn2KYDcwtDadoOraOrJ/R7taKxeOBTsAAAAAoK7UYrQT66hlxa6+dJry1YRQbenrWNPXtc6FYAcAAAAA1J1ainZiHfUgffVg15ql8xulNozsLqdTFHKT//bOlmAHAAAAANSlWoh2Yh31otgxkHnuWLUi8wzV1v/hya9h7W6v3E1PwQ4AAAAAqFtLOdqJddST1e09meeWFc0xOJaNeFBNK9e2Z56724qRW559ReZcCHYAAAAAQF1bitFOrKPe9Kxcl05xzcZCOkHVrOrtzDwXO9ZnnudKsAMAAAAA6t5SinZiHfUon5sc5wY2TX5FIVTD4NhAtKxozmwD+ex3FedKsAMAAAAAWCLRTqyjnm0ujmee0xtPUC0bhq9Jpylvfc6FYAcAAAAA8J7FHO3EOupdeqPJd+yYL30fXpN5bm3MTXnrcy4EOwAAAACAyyzGaCfWwdQ3mga3T96g0rqvyd7mHCqOZZ4rQbADAAAAAEgspmgn1sEf5HOF6G7L/hZ6y5W95QSpWz+7LRqalmW2vvy1medKEOwAAAAAAKawGKKdWAdZ16/dlnnOFzuipyTaUT0Dm9amU6wvlNNpzgQ7AAAAAIBpLGS0E+tgst6VG9IpttyyMZ2gYoobujPPm4vj0dTQnNkqQbADAAAAALiChYh2Yh1MbV2hFK2N2d9ceftA5hkqZarXYV63ZnPmuVIEOwAAAACADzCf0U6sgysbKo5lntvzbTE4JtpRefP1OswQ7AAAAAAAZmY+op1YBx9sZGBnOsWWXaV0gjnpKRWib3B1ZqvW6zBDsAMAAAAAmLlqRjuxDmYmnytEd1v2tzIwNPkmFMzFtj3Xp1PVXocZgh0AAAAAwNWpRrQT6+Dq3Lj+9sxzy4rm2PvIjswGc3Hdtr7Mc2tjLsrF4cxWSYIdAAAAAMBVqmS0E+vg6g1esyWdYsMNPekEs3LrZ7dFy4rsqy8/2v+xzHOlCXYAAAAAALNQiWgn1sHsNDU0x2j/RGbLFztifF/1bkBRP67fsS6d4oaBG9OpogQ7AAAAAIBZmku0E+tgbjb1fDSdojw6kE5wVcb3DUe+2JHZNhfHI7c8u1WaYAcAAAAAMAeziXZiHcxdsasvSqu2Zra+wdUxOCbaMXtTRd+PrrspnSpOsAMAAAAAmKOriXZiHVTOtnW70il23OO1mMzO4NhA9A2uzmylVVuj2NWX2apBsAMAAAAAqICZRDuxDiprXaEU3W3Z35RbdszWxAOj6RQ7S3ekU1UIdgAAAAAAFXKlaFca3CTWQRXsuu7udJoyvMCVTPXtuvm6XReCHQAAAABAZU0X7RoaGtJJrIMKKBeHJ92yyxc7YnyfV2MycyMT5XSat9t1IdgBAAAAAFTedNHucmIdVM5dWyb/3rZ/YlM6wZT2PrJjQW/XhWAHAAAAAFAdV4p2Yh1UVrGrL0qrtma29nxb3Pv5XZkNUj2lQgzddG06z+vtuhDsAAAAAACqZ6poJ9ZBddz64XvSKTaNr4+eUiGd4ZKdn9wSLSuaM9to/8S83q4LwQ4AAAAAoLouj3ZiHVRPPleI0f6JzNbQtCzufHRnZoP3jewux+DYQGZrbczF2MZbM9t8+NDFixcvpiMAAAAAAJX15JP/HWNj28U6qKLzF87F33/7L+Pd353K7AcefyaeeuJgZoO/ePxPoj3fltkmBvfH6IabM9t8cMMOAAAAAGAe7Np1s1gHVdbU0Bx7hj6TznHLpz/i1Zhk7H9sYlKs6+0sLUisC8EOAAAAAACoJeXicJRWbc1sXo3J5aZ6FWZExMT1n0qneSPYAQAAAAAANeXjw/dHa2Mus61Zl4+9j+zIbNSfnlIhJh4YTee46dq7o9jVl87zRrADAAAAAABqSm55R9xannxbautt5RjZXU5n6sjtD41Fy4rmzNbbWYo/Lt+R2eabYAcAAAAAANSc4f7R2Fwcz2wNTcti1/4R37OrU3sf2RF9g6vTOT4xPPm7h/NNsAMAAAAAAGrSHZvvm/RqzPZ8W9z+0Fhmo/aN7C7Htj3Xp3PcOfRg5HMLH3AFOwAAAAAAoCY1NTTH/m1/ns7RN7g67v38rnSmRvWUCrHn4cnfL9xcHI/h/snfs1sIgh0AAAAAAFCzil19cefQg+kcW27ZGHsfmRxxqC09pULc/9ht0dC0LLN3txXjjs33ZbaFJNgBAAAAAAA1bbh/NEb7J9I5tt5WjpHd5XSmhtz56M5oz7dlttbGXNz3kc9FU0NzZl9Igh0AAAAAAFDzbh7cG72dpczW0LQs9jy8Q7SrUQ998a5Ysy6fznHvDQ8viu/WXU6wAwAAAAAAal5TQ3N8evuj0dqYy+yiXW166It3Rd/g6nSOO4cejHWFbLhdDAQ7AAAAAACgLjQ1NMcDN35hymi3a/9I9JQW160rZme6WDfaPxHD/aPpvCgIdgAAAAAAQN3I5wrxwI1fSOdoz7fF/Y/dJtotcVeKdRND+9J50RDsAAAAAACAupLPFeJTW/8snaM93xYP/s0nvB5ziZou1vV2lhZ1rAvBDgAAAAAAqEfl4vCU0c437ZamK8W6T29/NJ0XnQ9dvHjxYjoCAAAAAADUg0NHD8ZXfvwP6RwXzv8+vvOvP4qnnjiYHrGI9JQKceejO2PNunx6dCnWNTU0p0eLjmAHAAAAAADUtemiXUTED7/xs/j6l76XziwCPaVC3P/YbdGeb0uPllSsC8EOAAAAAAAg4uVjh+Orz/1jvPu7U+lRvPjckfjnv/qvdGYBjewux56Hd0RD07L0KEb7J+Lmwb1LJtaFYAcAAAAAAPAHJ04di8e//8Upo92Joyfjib99Mo4cPpYeMc/2PrIjtt5WnjbWTQztS+dFT7ADAAAAAAB4z4lTx+I/D345Xn/rcHoUZ06fiwOPPxPPfvNQesQ86CkV4vaHxqJvcHV6FBERE4P7Y3TDzem8JAh2AAAAAAAAlzl/4Vx87dnH4/BvfpweRUTEL55+Jf7trw+kM1U0srscu/aPTPm9utbGXOwZ+kyUi8Pp0ZIh2AEAAAAAAEzhwPNPxDOvTh3mThw9GQcefyZ+8fQr6REVdu/nd8WWWzamc0REdLcV476PfC7yuUJ6tKQIdgAAAAAAANM4dPRgfOP5L0/5XbsL538fP33qpfjq3z2ZHlEBg2MDMfHAaOSLHelRRESUVm2Ne0YeiKaG5vRoyRHsAAAAAAAAruBK37WL927bPfXVg75tV0H7H5uIwbGBdL5kKX+vbiqCHQAAAAAAwAc4f+Fc/OBX34nv/urf06NLXnzuSHz7X34URw4fS4+YofF9w7Hzk1uiZcXUt+Zq5RWYKcEOAAAAAABgho7+9rX4j5/8Uxx/52h6FOE1mbM2srsc4/cOT/v6y4iIm669O7Zfe0tNvAIzJdgBAAAAAABchZnctjtz+lw8/91fxde/9L30iMsMjg3EjnuGo29wdXp0SXdbMe7a8qdR7OpLj2qGYAcAAAAAADALR3/7Whz42Vem/bZdCHfTmkmoi/e+VXdD/1hN3qq7nGAHAAAAAAAwBwdffSa+degr8e7vTqVHl5w5fS5++cPX4off+Fldf+NufN9wlEcHPjDUlVZtjY8P3x+55dO/IrOWCHYAAAAAAABzNJPXZMZ737g7+uLx+N7XDsYvnn4lPa5JPaVCbLllY5S3D0R7vi09zujtLMXE9Z+q6ddfTkWwAwAAAAAAqJBTZ0/G0y98K5559UB6NMnbJ96JQz94JX7ynRdq8tbdyO5y3PCx66K4oTsampalxxndbcXYdd3dUS4Op0d1QbADAAAAAACosKsJdxERb7x8Il77+RtLPt6N7C7Hph3ro7hxVbSs+ODvztV7qHufYAcAAAAAAFAlp86ejOde+X7876vfvuI37i73xssn4o2X/y9e/fmv49lvHkqPF5WeUiHK2wdiYNPaWNXbOaNIF+99o27bul2xrlBKj+qSYAcAAAAAAFBl5y+ci5eOHYofvPSteP2tw+nxtM6cPhcnf3N60QS8wbGBuGZjIa65tjtW9XV94DfpLtfamIuh4liMDOyMfK6QHtc1wQ4AAAAAAGAenTh1LJ595X/i+aNPz/jW3eVOHD0Z75w8G++8dSZe/+Wbceb0uYqHvJ5SIQaG1kbnqhWRW9kWhf6uaG1fPuMbdJfr7SzF9vW3xvpCOZoarv7f1wPBDgAAAAAAYIG8fOxwvPDm87OOd5e7cP73cfL46YiIS0Fvpgr9XRER0djccFW35qbT21mKG3rHY/3qcuSWd6THJAQ7AAAAAACAReD9ePfi8Z/G8XeOpseL3ubieAzkSyLdLAh2AAAAAAAAi8ypsyfjpTcPxZtvH1m0Aa+0amsMdF8XvSvXR7GrLz3mKgh2AAAAAAAAi9ypsyfj+NtvxrFTR+ONk6/H0ZMvzVvEa23MRU/nxljb0RcdLSujZ+W6yOcK6X/GHAh2AAAAAAAAS9SJU8fi3IWz8Zu3fx1nL5yJk++eiN++e/zS+ZG3Xrjit/F6O0vR0rgiIiKWN7bGmo7eiIgo5IrR3Lg8unOro6mhOflXVJpgBwAAAAAAAAvoj9IBAAAAAAAAmD+CHQAAAAAAACwgwQ4AAAAAAAAWkGAHAAAAAAAAC0iwAwAAAAAAgAUk2AEAAAAAAMACEuwAAAAAAABgAQl2AAAAAAAAsIAEOwAAAAAAAFhAgh0AAAAAAAAsIMEOAAAAAAAAFpBgBwAAAAAAAAtIsAMAAAAAAIAF9P9kuer++sWRUQAAAABJRU5ErkJggg==;" vertex="1" parent="1">
          <mxGeometry x="-300" y="80" width="222" height="169.63" as="geometry" />
        </mxCell>
        <mxCell id="fjiwsdt_9cLcJGBCS1oQ-9" value="Duración total = 11 d&lt;div&gt;&lt;br&gt;&lt;/div&gt;&lt;div&gt;Camino crítico = 8 d (5 h/d)&amp;nbsp;≈ 2 sem&lt;/div&gt;" style="text;html=1;align=left;verticalAlign=middle;resizable=0;points=[];autosize=1;strokeColor=none;fillColor=none;" vertex="1" parent="1">
          <mxGeometry x="-1000" y="260" width="210" height="60" as="geometry" />
        </mxCell>
        <mxCell id="fjiwsdt_9cLcJGBCS1oQ-10" value="" style="endArrow=classic;html=1;rounded=0;exitX=1;exitY=0.5;exitDx=0;exitDy=0;strokeColor=#FF0000;" edge="1" parent="1">
          <mxGeometry width="50" height="50" relative="1" as="geometry">
            <mxPoint x="-1040" y="304" as="sourcePoint" />
            <mxPoint x="-1000" y="304" as="targetPoint" />
          </mxGeometry>
        </mxCell>
        <mxCell id="fjiwsdt_9cLcJGBCS1oQ-11" value="Duración total = 25 d&lt;div&gt;&lt;br&gt;&lt;/div&gt;&lt;div&gt;Camino crítico = 17 d (5 h/d)&amp;nbsp;≈ 4 sem&lt;/div&gt;" style="text;html=1;align=left;verticalAlign=middle;resizable=0;points=[];autosize=1;strokeColor=none;fillColor=none;" vertex="1" parent="1">
          <mxGeometry x="-1000" y="540" width="220" height="60" as="geometry" />
        </mxCell>
        <mxCell id="fjiwsdt_9cLcJGBCS1oQ-12" value="" style="endArrow=classic;html=1;rounded=0;exitX=1;exitY=0.5;exitDx=0;exitDy=0;strokeColor=#FF0000;" edge="1" parent="1">
          <mxGeometry width="50" height="50" relative="1" as="geometry">
            <mxPoint x="-1040" y="584" as="sourcePoint" />
            <mxPoint x="-1000" y="584" as="targetPoint" />
          </mxGeometry>
        </mxCell>
        <mxCell id="fjiwsdt_9cLcJGBCS1oQ-13" value="" style="endArrow=none;dashed=1;html=1;rounded=0;" edge="1" parent="1">
          <mxGeometry width="50" height="50" relative="1" as="geometry">
            <mxPoint x="-1060" y="620" as="sourcePoint" />
            <mxPoint x="-1060" y="80" as="targetPoint" />
          </mxGeometry>
        </mxCell>
        <mxCell id="fjiwsdt_9cLcJGBCS1oQ-14" value="" style="endArrow=none;dashed=1;html=1;rounded=0;" edge="1" parent="1">
          <mxGeometry width="50" height="50" relative="1" as="geometry">
            <mxPoint x="-300" y="620" as="sourcePoint" />
            <mxPoint x="-300" y="80" as="targetPoint" />
          </mxGeometry>
        </mxCell>
        <mxCell id="fjiwsdt_9cLcJGBCS1oQ-15" value="" style="endArrow=none;dashed=1;html=1;rounded=0;" edge="1" parent="1">
          <mxGeometry width="50" height="50" relative="1" as="geometry">
            <mxPoint x="-300" y="621" as="sourcePoint" />
            <mxPoint x="-1060" y="621" as="targetPoint" />
          </mxGeometry>
        </mxCell>
        <mxCell id="fjiwsdt_9cLcJGBCS1oQ-16" value="" style="endArrow=none;dashed=1;html=1;rounded=0;" edge="1" parent="1">
          <mxGeometry width="50" height="50" relative="1" as="geometry">
            <mxPoint x="-300" y="360" as="sourcePoint" />
            <mxPoint x="-1060" y="360" as="targetPoint" />
          </mxGeometry>
        </mxCell>
        <mxCell id="fjiwsdt_9cLcJGBCS1oQ-17" value="" style="endArrow=none;dashed=1;html=1;rounded=0;" edge="1" parent="1">
          <mxGeometry width="50" height="50" relative="1" as="geometry">
            <mxPoint x="-300" y="80" as="sourcePoint" />
            <mxPoint x="-1060" y="80" as="targetPoint" />
          </mxGeometry>
        </mxCell>
      </root>
    </mxGraphModel>
  </diagram>
</mxfile>
